<?xml version="1.0" encoding="UTF-8"?>
<svg width="16px" height="17px" viewBox="0 0 16 17" version="1.1" xmlns="http://www.w3.org/2000/svg" xmlns:xlink="http://www.w3.org/1999/xlink">
    <!-- Generator: sketchtool 63.1 (101010) - https://sketch.com -->
    <title>62BD407D-EE25-447D-A2EC-E8A11B682F57</title>
    <desc>Created with sketchtool.</desc>
    <g id="Page-1" stroke="none" stroke-width="1" fill="none" fill-rule="evenodd">
        <g id="01vCRM/Provider/Tickets/View" transform="translate(-1467.000000, -330.000000)">
            <g id="Group-3" transform="translate(534.000000, 132.000000)">
                <g id="Group-Copy-3" transform="translate(0.000000, 155.000000)">
                    <g id="Group-15" transform="translate(829.000000, 25.000000)">
                        <g id="Group-14-Copy" transform="translate(73.000000, 0.500000)">
                            <g id="dwnld_hover-copy-13" transform="translate(30.560606, 17.318182)">
                                <rect id="Rectangle" fill="#FFFFFF" x="0.700812826" y="0.700812826" width="15.6194803" height="15.6194803" rx="7.80974015"></rect>
                                <path d="M8.51055298,15.3897928 C12.3098522,15.3897928 15.3897928,12.3098522 15.3897928,8.51055298 C15.3897928,4.71125372 12.3098522,1.63131313 8.51055298,1.63131313 C4.71125372,1.63131313 1.63131313,4.71125372 1.63131313,8.51055298 C1.63131313,12.3098522 4.71125372,15.3897928 8.51055298,15.3897928 Z M8.72943634,11.5040876 L11.1104158,9.1231081 C11.2979429,8.93558104 11.2979429,8.63153959 11.1104158,8.44401252 C10.9228887,8.25648546 10.6188473,8.25648546 10.4313202,8.44401252 L8.89526514,9.98014998 L8.89550823,5.6810489 C8.89550823,5.41584558 8.68051846,5.20085581 8.41531514,5.20085581 C8.15011182,5.20085581 7.93512205,5.41584558 7.93512205,5.6810489 L7.9346562,9.97944105 L6.39931006,8.44401252 C6.21178299,8.25648546 5.90774154,8.25648546 5.72021448,8.44401252 C5.53268741,8.63153959 5.53268741,8.93558104 5.72021448,9.1231081 L7.94827074,11.3534357 C7.97165891,11.4081627 8.00568225,11.4594291 8.05034076,11.5040876 C8.23786782,11.6916146 8.54190927,11.6916146 8.72943634,11.5040876 Z" id="Shape" fill="#0978FC"></path>
                            </g>
                        </g>
                    </g>
                </g>
            </g>
        </g>
    </g>
</svg>