<?xml version="1.0" encoding="UTF-8"?>
<svg width="22px" height="23px" viewBox="0 0 22 23" version="1.1" xmlns="http://www.w3.org/2000/svg" xmlns:xlink="http://www.w3.org/1999/xlink">
    <!-- Generator: sketchtool 63.1 (101010) - https://sketch.com -->
    <title>B9B21AE3-A3B4-4375-A3DD-97C3DF1C69AB</title>
    <desc>Created with sketchtool.</desc>
    <g id="Page-1" stroke="none" stroke-width="1" fill="none" fill-rule="evenodd">
        <g id="03provider_support_modifyticket" transform="translate(-464.000000, -657.000000)" fill="#1F2631">
            <g id="Group-13" transform="translate(93.000000, 102.000000)">
                <g id="card1" transform="translate(0.139498, 0.243094)">
                    <g id="Group-8" transform="translate(26.168200, 370.999484)">
                        <g id="Stacked-Group" transform="translate(0.000000, 3.778427)">
                            <g id="Group-17-Copy-2" transform="translate(0.000000, 179.000000)">
                                <g id="dwnld_hover-copy-3" transform="translate(356.000000, 12.500000) scale(1, -1) translate(-356.000000, -12.500000) translate(344.500000, 1.500000)">
                                    <g id="Group-3">
                                        <g id="deletepicture" transform="translate(0.500000, 0.000000)">
                                            <path d="M10.8298157,2.8200992e-14 C16.8109577,2.8200992e-14 21.6596313,4.84867363 21.6596313,10.8298157 C21.6596313,16.8109577 16.8109577,21.6596313 10.8298157,21.6596313 C4.84867363,21.6596313 2.8200992e-14,16.8109577 2.8200992e-14,10.8298157 C2.8200992e-14,4.84867363 4.84867363,2.8200992e-14 10.8298157,2.8200992e-14 Z M10.8298157,1.48835129 C5.67066735,1.48835129 1.48835129,5.67066735 1.48835129,10.8298157 C1.48835129,15.988964 5.67066735,20.17128 10.8298157,20.17128 C15.988964,20.17128 20.17128,15.988964 20.17128,10.8298157 C20.17128,5.67066735 15.988964,1.48835129 10.8298157,1.48835129 Z M7.94572243,6.56397156 L10.829,9.447 L13.7139089,6.56397156 C14.0954688,6.18241159 14.7140998,6.18241159 15.0956598,6.56397156 C15.4772197,6.94553152 15.4772197,7.56416246 15.0956598,7.94572243 L12.211,10.829 L15.0956598,13.7139089 C15.4772197,14.0954688 15.4772197,14.7140998 15.0956598,15.0956598 C14.7140998,15.4772197 14.0954688,15.4772197 13.7139089,15.0956598 L10.829,12.211 L7.94572243,15.0956598 C7.56416246,15.4772197 6.94553152,15.4772197 6.56397156,15.0956598 C6.18241159,14.7140998 6.18241159,14.0954688 6.56397156,13.7139089 L9.447,10.829 L6.56397156,7.94572243 C6.18241159,7.56416246 6.18241159,6.94553152 6.56397156,6.56397156 C6.94553152,6.18241159 7.56416246,6.18241159 7.94572243,6.56397156 Z"></path>
                                        </g>
                                    </g>
                                </g>
                            </g>
                        </g>
                    </g>
                </g>
            </g>
        </g>
    </g>
</svg>