<?xml version="1.0" encoding="UTF-8"?>
  <svg width="46px" height="39px" viewBox="0 0 46 39" version="1.1" xmlns="http://www.w3.org/2000/svg" xmlns:xlink="http://www.w3.org/1999/xlink">
    <title>Upload</title>
    <desc>Created with sketchtool.</desc>
    <g id="Page-1" stroke="none" stroke-width="1" fill="none" fill-rule="evenodd">
        <g id="04vtra_provider_settings1_popup" transform="translate(-925.000000, -494.000000)" fill="#DDE1E5" fill-rule="nonzero">
            <g id="popup-copy-4" transform="translate(858.000000, 122.000000)">
                <g id="Trailer1" transform="translate(40.750000, 32.000000)">
                    <g id="Group-3">
                        <g id="Group-2-Copy-2" transform="translate(1.000000, 71.000000)">
                            <g id="Stacked-Group-2">
                                <g id="Group-6">
                                    <g id="Group-Copy-2" transform="translate(1.250000, 223.000000)">
                                        <g id="Group-4" transform="translate(17.000000, 8.000000)">
                                            <g id="Upload1" transform="translate(0.000000, 27.000000)">
                                                <g id="Group-11">
                                                    <g transform="translate(6.285714, 10.215190)">
                                                        <g id="upload" transform="translate(0.521424, 0.348243)">
                                                            <g id="photo" transform="translate(0.692862, 0.436567)">
                                                                <path d="M40.6250034,0.0287389091 C43.3173917,0.0287389091 45.5,2.58071601 45.5,5.72874448 L45.5,5.72874448 L45.5,32.3287333 C45.5,35.4767618 43.3173917,38.0287389 40.6250034,38.0287389 L40.6250034,38.0287389 L4.8749966,38.0287389 C2.18260834,38.0287389 1.4281909e-12,35.4767618 1.4281909e-12,32.3287333 L1.4281909e-12,32.3287333 L1.4281909e-12,5.72874448 C1.4281909e-12,2.58071601 2.18260834,0.0287389091 4.8749966,0.0287389091 L4.8749966,0.0287389091 Z M40.6250034,3.82870551 L4.8749966,3.82870551 C3.97750211,3.82870551 3.24996599,4.67936454 3.24996599,5.72874448 L3.24996599,5.72874448 L3.24996599,25.8420825 L8.6011317,19.5853244 C9.23564297,18.8435444 10.2643434,18.8435444 10.8988547,19.5853244 L10.8988547,19.5853244 L16.2500204,25.8420825 L29.7261487,10.0854636 C30.36066,9.34368355 31.3893604,9.34368355 32.0238717,10.0854636 L32.0238717,10.0854636 L42.250034,22.0421159 L42.250034,5.72874448 C42.250034,4.67936454 41.5224979,3.82870551 40.6250034,3.82870551 L40.6250034,3.82870551 Z M14.6249898,9.02868324 C17.3173761,9.02868324 19.4999864,11.2672595 19.4999864,14.0286832 C19.4999864,16.790107 17.3173761,19.0286832 14.6249898,19.0286832 C11.9326035,19.0286832 9.7499932,16.790107 9.7499932,14.0286832 C9.7499932,11.2672595 11.9326035,9.02868324 14.6249898,9.02868324 Z" id="Combined-Shape"></path>
                                                            </g>
                                                        </g>
                                                    </g>
                                                </g>
                                            </g>
                                        </g>
                                    </g>
                                </g>
                            </g>
                        </g>
                    </g>
                </g>
            </g>
        </g>
    </g>
  </svg>