<?xml version="1.0" encoding="UTF-8"?>
<svg width="35px" height="33px" viewBox="0 0 35 33" version="1.1" xmlns="http://www.w3.org/2000/svg" xmlns:xlink="http://www.w3.org/1999/xlink">
    <!-- Generator: sketchtool 63.1 (101010) - https://sketch.com -->
    <title>104D0E7A-0F6E-4E3C-86B9-08B2FDAB8557</title>
    <desc>Created with sketchtool.</desc>
    <defs>
        <linearGradient x1="38.5485424%" y1="31.6180278%" x2="107.962673%" y2="133.805436%" id="linearGradient-1">
            <stop stop-color="#11EB96" offset="0%"></stop>
            <stop stop-color="#00B870" offset="100%"></stop>
        </linearGradient>
        <filter x="-62.7%" y="-106.6%" width="226.8%" height="314.8%" filterUnits="objectBoundingBox" id="filter-2">
            <feOffset dx="0" dy="2" in="SourceAlpha" result="shadowOffsetOuter1"></feOffset>
            <feGaussianBlur stdDeviation="1.5" in="shadowOffsetOuter1" result="shadowBlurOuter1"></feGaussianBlur>
            <feColorMatrix values="0 0 0 0 0   0 0 0 0 0   0 0 0 0 0  0 0 0 0.1 0" type="matrix" in="shadowBlurOuter1" result="shadowMatrixOuter1"></feColorMatrix>
            <feMerge>
                <feMergeNode in="shadowMatrixOuter1"></feMergeNode>
                <feMergeNode in="SourceGraphic"></feMergeNode>
            </feMerge>
        </filter>
    </defs>
    <g id="Page-1" stroke="none" stroke-width="1" fill="none" fill-rule="evenodd">
        <g id="00vCRM/Provider/Dashboard" transform="translate(-15.000000, -9.000000)" fill-rule="nonzero">
            <g id="Skin/provider">
                <g id="Group">
                    <g id="header">
                        <g id="Vdrmlogo-Copy">
                            <g>
                                <g transform="translate(14.000000, 1.500000)">
                                    <g id="Group" transform="translate(1.240893, 7.692308)">
                                        <g id="Vtran" fill="url(#linearGradient-1)">
                                            <path d="M2.05465771,22.189474 C6.04850476,30.204632 14.8631561,34.0210531 21.735222,30.6964215 C28.607288,27.3717899 37.1621355,13.3608423 33.8950599,6.80084221 C30.6279844,0.240842109 14.1380827,-1.66905266 7.25922455,1.65221055 C0.380366386,4.97347376 -1.94258547,14.1642107 2.05465771,22.189474 Z" id="Shape-Copy"></path>
                                        </g>
                                        <g id="agreement" filter="url(#filter-2)" transform="translate(8.150708, 11.452632)" fill="#FFFFFF">
                                            <path d="M4.01516444,0.759587374 C3.47177753,0.20715725 1.16243884,0.0690739957 0.415285804,-4.78681429e-15 C0.347374379,-4.78681429e-15 0.279431115,-4.78681429e-15 0.21151969,0.0690416274 C0.143608264,0.138115623 0.0756968388,0.276231246 0.0756968388,0.345272874 L0.0756968388,6.55999039 C0.0756968388,6.76714764 0.211551528,6.90526326 0.415317643,6.90526326 L2.45297879,6.90526326 C2.58883348,6.90526326 2.72465633,6.83622163 2.79259959,6.69810601 C2.79259959,6.49094876 4.01519628,2.83115988 4.15105097,1.03581862 C4.15105097,0.966744625 4.15105097,0.82866137 4.01516444,0.759587374 Z" id="Path"></path>
                                            <path d="M11.4678529,2.32725984 C10.7666395,2.11728129 10.1355376,1.83732082 9.57454718,1.62734227 C8.31234335,1.06738853 7.75135292,1.34736844 6.62940492,2.46725647 C6.13855883,2.95719549 5.7879357,3.65714586 5.85804718,3.93710633 C5.85804718,4.00708824 5.85804718,4.00708824 5.998303,4.07710296 C6.34892614,4.2170996 6.83977222,4.28708151 7.33061831,3.51714923 C7.40072979,3.44716731 7.47087413,3.37715259 7.61109709,3.37715259 C7.8214644,3.37715259 7.89157587,3.30717068 8.10194318,3.23715595 C8.242199,3.16717404 8.38242196,3.09715932 8.59278926,3.0271774 C8.66290074,3.0271774 8.66290074,3.0271774 8.73304509,3.0271774 C8.80315657,3.0271774 8.94341239,3.09715932 9.01352387,3.09715932 C9.36417987,3.44716731 9.99528179,3.93710633 10.6263837,4.49706006 C11.6081087,5.26699235 12.5898009,6.10690655 13.0806799,6.73684221 L13.1507913,6.73684221 C12.6599453,5.33697427 11.818476,2.95719549 11.4678529,2.32725984 Z" id="Path"></path>
                                            <path d="M16.3649749,0.673684221 C13.6214005,0.673684221 12.0737542,1.36420407 12.0033842,1.36420407 C11.9330471,1.43324635 11.862677,1.50232099 11.79234,1.57136327 C11.79234,1.64040554 11.79234,1.77852246 11.862677,1.84756473 C12.2847654,2.53808459 13.6917376,6.33602469 13.9027818,7.30274601 C13.9731189,7.44086293 14.113826,7.57894748 14.2545331,7.57894748 L16.3649749,7.57894748 C16.5760191,7.57894748 16.7167262,7.44083056 16.7167262,7.23367137 L16.7167262,1.01889559 C16.7167262,0.811801138 16.5760191,0.673684221 16.3649749,0.673684221 Z" id="Path"></path>
                                            <path d="M12.5820581,7.39520779 C12.3048454,6.77511297 11.1266346,5.87943121 10.0870463,5.05263811 C9.53262092,4.57032061 8.97816303,4.15692406 8.56232773,3.81241617 C8.49303268,3.88130483 8.35441008,3.88130483 8.35441008,3.95022579 C8.14649243,4.01911445 8.07719738,4.0880354 7.79995219,4.0880354 C7.24552678,4.77701888 6.5524463,5.05260582 5.79010324,4.77701888 C5.443563,4.70813022 5.23564535,4.43251099 5.1663503,4.15692406 C5.0277277,3.46794058 5.65148065,2.50333787 6.13664349,2.02105266 L4.750515,2.02105266 C4.4733023,3.39905192 3.98813946,5.19041543 3.64163171,6.15501814 C3.91884441,6.43060508 4.1960896,6.77511297 4.40400725,6.91292258 C5.72080819,8.01530261 7.24555927,9.11771494 7.52277197,9.32441321 C7.73068962,9.46222282 8.14652492,9.60000014 8.35444257,9.60000014 C8.42373762,9.60000014 8.49306516,9.60000014 8.56236022,9.60000014 L7.45344443,8.49758782 C7.31482184,8.3597782 7.31482184,8.15307993 7.45344443,8.01530261 C7.59206703,7.87752529 7.79998468,7.87749299 7.93857478,8.01530261 L9.32470327,9.39330187 C9.46332586,9.53111148 9.60191597,9.46219053 9.74053857,9.46219053 C9.94845621,9.39330187 10.0177513,9.25549225 10.0870788,9.04879398 L8.49303268,7.46409645 C8.35441008,7.32628683 8.35441008,7.11958856 8.49303268,6.98181124 C8.63165527,6.84403392 8.83957292,6.84400162 8.97816303,6.98181124 L10.7107993,8.70428609 C10.7800943,8.77317475 11.0573395,8.77317475 11.2652572,8.70428609 C11.3345522,8.63539743 11.4731748,8.56647648 11.5424699,8.42869916 L9.60191597,6.49949374 C9.46329338,6.36168412 9.46329338,6.15498585 9.60191597,6.01720853 C9.74053857,5.87943121 9.94845621,5.87939891 10.0870463,6.01720853 L12.0969278,8.01530261 C12.2355503,8.08419127 12.3741405,8.01530261 12.5127631,7.94641395 C12.5820581,7.87749299 12.7206807,7.67079472 12.5820581,7.39520779 Z" id="Path"></path>
                                        </g>
                                    </g>
                                </g>
                            </g>
                        </g>
                    </g>
                </g>
            </g>
        </g>
    </g>
</svg>