<?xml version="1.0" encoding="UTF-8"?>
<svg width="14px" height="14px" viewBox="0 0 14 14" version="1.1" xmlns="http://www.w3.org/2000/svg" xmlns:xlink="http://www.w3.org/1999/xlink">
    <!-- Generator: sketchtool 57.1 (101010) - https://sketch.com -->
    <title>54075CC6-D748-489B-8869-7F611BCCDA7D@2x</title>
    <desc>Created with sketchtool.</desc>
    <g id="Page-1" stroke="none" stroke-width="1" fill="none" fill-rule="evenodd" opacity="0.5">
        <g id="01.2_Provider_getpublishers2" transform="translate(-1006.000000, -435.000000)" fill="#87919F" fill-rule="nonzero">
            <g id="Group-22" transform="translate(421.411823, 119.500000)">
                <g id="Group-15-Copy" transform="translate(0.000000, 184.000000)">
                    <g id="Group-13" transform="translate(0.000000, 24.116782)">
                        <g id="Group-18-Copy" transform="translate(0.000000, 53.985359)">
                            <g id="Group-17-Copy-22" transform="translate(0.000000, 50.000000)">
                                <g id="Group-2" transform="translate(21.000000, 0.500000)">
                                    <g id="Actions-Copy-Ic_info" transform="translate(564.160284, 3.000000)">
                                        <g id="Ic_info">
                                            <path d="M6.69183078,4.50921352e-15 C10.3876269,4.50921352e-15 13.3836616,2.99603469 13.3836616,6.69183078 C13.3836616,10.3876269 10.3876269,13.3836616 6.69183078,13.3836616 C2.99603469,13.3836616 4.50921352e-15,10.3876269 4.50921352e-15,6.69183078 C4.50921352e-15,2.99603469 2.99603469,4.50921352e-15 6.69183078,4.50921352e-15 Z M6.69183078,1.2320699 C3.67648811,1.2320699 1.2320699,3.67648811 1.2320699,6.69183078 C1.2320699,9.70717346 3.67648811,12.1515917 6.69183078,12.1515917 C9.70717346,12.1515917 12.1515917,9.70717346 12.1515917,6.69183078 C12.1515917,3.67648811 9.70717346,1.2320699 6.69183078,1.2320699 Z M7.22617202,5.20410096 L7.22617202,10.0020854 L6.14862091,10.0020854 L6.14862091,5.20410096 L7.22617202,5.20410096 Z M6.6896136,3.38157632 C6.88472669,3.38157632 7.03549364,3.43626629 7.14191896,3.54564788 C7.24834428,3.65502947 7.30155615,3.79249346 7.30155615,3.95804397 C7.30155615,4.12063822 7.24834428,4.25588505 7.14191896,4.36378851 C7.03549364,4.47169197 6.88472669,4.52564289 6.6896136,4.52564289 C6.49450051,4.52564289 6.34447261,4.47169197 6.23952542,4.36378851 C6.13457823,4.25588505 6.08210542,4.12063822 6.08210542,3.95804397 C6.08210542,3.79249346 6.13457823,3.65502947 6.23952542,3.54564788 C6.34447261,3.43626629 6.49450051,3.38157632 6.6896136,3.38157632 Z" id="Combined-Shape"></path>
                                        </g>
                                    </g>
                                </g>
                            </g>
                        </g>
                    </g>
                </g>
            </g>
        </g>
    </g>
</svg>