<?xml version="1.0" encoding="UTF-8"?>
<svg width="107px" height="90px" viewBox="0 0 107 90" version="1.1" xmlns="http://www.w3.org/2000/svg" xmlns:xlink="http://www.w3.org/1999/xlink">
    <!-- Generator: sketchtool 63.1 (101010) - https://sketch.com -->
    <title>956632A9-F82A-444E-A5FA-178003AC5F3B</title>
    <desc>Created with sketchtool.</desc>
    <g id="Page-1" stroke="none" stroke-width="1" fill="none" fill-rule="evenodd">
        <g id="01vtra_provider_Preprocess_import" transform="translate(-796.000000, -424.000000)">
            <g id="popup" transform="translate(715.500000, 269.000000)">
                <g id="Group-2" transform="translate(80.500000, 13.000000)">
                    <g id="drive" transform="translate(0.000000, 142.000000)">
                        <g id="Group-4">
                            <g id="Group-2">
                                <g id="Internal_1">
                                    <rect id="Rectangle" fill="#EEEEEE" x="0" y="0" width="107" height="90" rx="19"></rect>
                                    <g id="Logo_of_Google_Drive" transform="translate(27.500000, 22.500000)" fill-rule="nonzero">
                                        <g id="Group" fill="#0BA25E">
                                            <polygon id="Path" points="16.5605723 0.111934586 16.6092531 0.110828203 16.6136786 0.165040969 16.5517212 0.167253735"></polygon>
                                            <path d="M16.3876793,0.433966356 C16.4263201,0.378482073 16.5016202,0.267513507 16.5402611,0.212029224 L16.6096164,0.201130526 C16.6611375,0.829291872 16.8454246,1.43466503 16.9841353,2.04598293 C17.5805914,4.70229298 18.1829921,7.35662144 18.8101627,10.0050052 C19.2213409,11.8211246 19.680077,13.628327 20.0565775,15.451382 C20.3835384,16.5798927 20.5589084,17.7440718 20.8749707,18.8745641 C21.0790736,19.9287655 21.399099,20.9572063 21.5705058,22.0173524 C21.5011504,22.1332749 21.4317951,22.2501882 21.3614489,22.3661108 C21.3446055,22.3928621 21.308937,22.4483464 21.2920936,22.4760885 L21.266333,22.5206741 C21.2623699,22.5286005 21.2534527,22.5454439 21.2484988,22.5533702 C21.2098579,22.6247072 21.1325763,22.7663902 21.0939354,22.8367364 C21.0869999,22.8496167 21.072138,22.8753772 21.0642117,22.8882575 L20.9938656,23.0130971 C20.9849484,23.027959 20.968105,23.0566919 20.9601787,23.0715538 L20.877943,23.2152185 C20.8739799,23.2231448 20.8650628,23.2389974 20.8601088,23.2469238 L20.7580574,23.4252661 C20.7491402,23.440128 20.731306,23.4718333 20.7223889,23.4876859 C20.712481,23.5045294 20.6926652,23.5372255 20.6827573,23.5540689 L20.5826874,23.7264665 C20.5747611,23.7393468 20.5589084,23.7670889 20.5509821,23.7799692 L20.4895531,23.8840022 C20.4796451,23.9018365 20.4578477,23.9384957 20.4479398,23.9563299 C20.4083082,24.0246945 20.3300357,24.1614236 20.2904041,24.230779 C20.2834686,24.2426685 20.2686067,24.2674382 20.2616712,24.2803185 L20.1992514,24.3843516 C20.1893435,24.4031766 20.1675461,24.438845 20.1566474,24.4576701 C20.1199881,24.5220715 20.044688,24.6498835 20.0080287,24.7142849 C19.9991116,24.7291467 19.9822682,24.7598613 19.9733511,24.7747231 L19.8990418,24.9084799 C19.8921062,24.9203694 19.8782352,24.9451391 19.8712996,24.9570286 L19.7950087,25.0907854 C19.7870824,25.1046564 19.7712297,25.1323986 19.7633034,25.1462697 C19.7236718,25.2116618 19.6463901,25.343437 19.6077493,25.40982 C19.5988322,25.4246819 19.5809979,25.4553964 19.5720808,25.471249 L19.5017347,25.5980702 C19.4947991,25.6099597 19.4819188,25.6327479 19.4759741,25.6446374 L19.3947293,25.7853297 C19.3877937,25.79821 19.3729319,25.8229797 19.3659963,25.8348692 C19.3243831,25.9062062 19.2421475,26.0478893 19.2005343,26.1192262 C19.1935987,26.1321065 19.1777461,26.157867 19.1698198,26.1707473 L19.1103723,26.2688356 C19.1004644,26.2866698 19.0796578,26.3213475 19.0697499,26.3391817 C19.0320998,26.4045739 18.9577905,26.5343675 18.9201405,26.5997597 C18.9141957,26.6106584 18.9003247,26.6344374 18.8943799,26.6453361 L18.8131351,26.7899915 C18.8071903,26.8008902 18.7953008,26.8216968 18.7893561,26.8325955 L18.7061297,26.9782418 C18.6991941,26.9891405 18.6853231,27.0129195 18.6783875,27.0238182 C18.6397467,27.0892103 18.5614742,27.2180131 18.5228334,27.2834053 C18.5119347,27.3002488 18.4921189,27.3359173 18.4812202,27.3537515 L18.4227635,27.4627385 C18.4148372,27.4766095 18.3999753,27.5043517 18.3930398,27.517232 L18.2909883,27.6935927 C18.283062,27.7084546 18.2652278,27.7381783 18.2573015,27.7530402 C18.2483843,27.7669112 18.2325317,27.7956442 18.2246054,27.8095152 C18.0571617,28.0918906 17.9055707,28.3831831 17.7202929,28.6546598 C16.6651007,30.3756633 15.6941257,32.1501696 14.6726205,33.8919798 C13.0140367,36.7623006 11.3574346,39.6326215 9.69885081,42.5029423 C9.45016233,42.9497889 9.16679617,43.3778106 8.95278537,43.844473 C8.94188667,43.8603257 8.92008927,43.892031 8.90919057,43.9078836 C8.51188348,43.3352065 8.20473834,42.703082 7.84111813,42.1086076 C6.18253438,39.2363051 4.52295985,36.3649935 2.8653669,33.4917003 C1.94393148,31.8757205 0.983855231,30.2795566 0.0871895875,28.648715 C3.63818369,22.5206741 7.17332515,16.3817345 10.7173837,10.2497305 C10.7203561,10.2437857 10.7272916,10.232887 10.730264,10.2269423 L10.8273615,10.0604894 C10.8313247,10.0535539 10.839251,10.0396828 10.8442049,10.0327473 L10.9422932,9.86530366 C10.9512103,9.8504418 10.9690446,9.8187365 10.9789525,9.80387464 C10.9888604,9.7860404 11.0086762,9.75136272 11.0185841,9.73352849 L11.1166724,9.55914932 C11.1236079,9.54725983 11.137479,9.52348085 11.1444145,9.51159136 L11.2177331,9.39467805 C11.2306133,9.37585302 11.2563739,9.33721218 11.2692542,9.31739637 C11.3049226,9.26389367 11.3772504,9.15589747 11.4139096,9.10239477 C11.4178728,9.08456054 11.4248083,9.04988286 11.4287715,9.03303942 L11.5149703,8.86757736 C11.5189335,8.86064183 11.5268598,8.84677075 11.5308229,8.83983522 L11.629902,8.67338237 C11.6398099,8.65752972 11.6596257,8.62384283 11.6695336,8.60699939 C11.6804323,8.58817436 11.7022297,8.54953352 11.7141192,8.52971771 L11.7973457,8.38407147 C11.8062628,8.36821881 11.824097,8.3375043 11.8330141,8.32264244 L11.9023695,8.20077518 C11.9102958,8.1878949 11.9261485,8.16015275 11.9340748,8.14628168 C11.9727156,8.0798987 12.0499973,7.94713274 12.0896289,7.88074976 C12.0975553,7.86687869 12.1134079,7.83913655 12.1213342,7.82526547 L12.193662,7.6934903 C12.1996067,7.68358239 12.2114962,7.661785 12.2174409,7.65187709 L12.3125569,7.48542424 C12.3244463,7.46560843 12.3492161,7.424986 12.3620964,7.40517019 L12.4264978,7.30807269 C12.4403689,7.28825688 12.4671202,7.24961604 12.4809913,7.23079101 C12.4928808,7.2109752 12.5176505,7.17134357 12.5305308,7.15152775 L12.5840335,7.04848551 C12.6018678,7.00984467 12.638527,6.93256299 12.6563613,6.89392215 L12.7108547,6.81763126 C12.7207627,6.80376019 12.7395877,6.77700884 12.7494956,6.76313777 C12.7861548,6.73242326 12.8604642,6.66901265 12.8971234,6.63730735 L12.8901879,6.52138483 C12.8961326,6.50751375 12.9100037,6.47977161 12.9169392,6.46590054 L13.0011564,6.2984569 C13.008092,6.28656741 13.021963,6.26179764 13.0288986,6.24990816 L13.1032079,6.12903168 C13.117079,6.10921587 13.1438303,6.06958424 13.1577014,6.04976842 C13.1913883,5.99428414 13.2597528,5.88529715 13.2934397,5.83080366 C13.3033476,5.81098785 13.3211819,5.77234701 13.3310898,5.75253119 L13.3836017,5.63859025 C13.3994543,5.60886653 13.4331412,5.54842829 13.4499847,5.51771378 L13.5153768,5.42457945 C13.5292479,5.40575442 13.5569901,5.36810437 13.5708611,5.34927935 C13.5827506,5.32946353 13.6075204,5.2898319 13.6194099,5.27001609 L13.6679586,5.16796464 C13.6788573,5.14517645 13.7016455,5.09860928 13.7125442,5.0758211 L13.7977522,4.91134983 C13.8106325,4.89153401 13.8354023,4.8499208 13.8472918,4.8291142 L13.9126839,4.7320167 C13.926555,4.71220089 13.9542972,4.67455084 13.9681682,4.65473502 C13.9810485,4.63491921 14.0058183,4.59429678 14.0177078,4.57448097 L14.0682381,4.47143873 C14.0831,4.4427058 14.1118329,4.38623072 14.125704,4.35749779 L14.1930777,4.24652923 C14.2049672,4.2277042 14.2287462,4.19005415 14.2416265,4.17122913 C14.2772949,4.11574484 14.3496227,4.00477628 14.3862819,3.95028279 C14.3902451,3.93343934 14.3991622,3.89975246 14.4031254,3.88290901 L14.4893242,3.71843775 C14.4922965,3.71150221 14.5002229,3.69862193 14.504186,3.6916864 L14.6032651,3.52226118 C14.613173,3.50541773 14.631998,3.47272164 14.6419059,3.45587819 C14.6518139,3.44002554 14.6706389,3.40633866 14.6805468,3.390486 L14.7796259,3.21709762 C14.783589,3.21016208 14.7915154,3.19629101 14.7954785,3.18836469 L14.8886128,3.02686579 C14.8935668,3.01993026 14.9024839,3.0050684 14.9064471,2.99714207 L15.006517,2.82870764 C15.0154341,2.81285499 15.0332683,2.78313126 15.0421854,2.76727861 C15.0520933,2.75043517 15.0719091,2.71575749 15.081817,2.69792326 L15.176933,2.53047962 C15.1828777,2.51958092 15.1947672,2.49877431 15.2007119,2.48886641 L15.280966,2.35907282 C15.2938463,2.34024779 15.3196068,2.30160695 15.3314963,2.28278193 C15.3681556,2.22828843 15.4394925,2.11930145 15.4761518,2.06480796 C15.4791241,2.04796451 15.4870505,2.01427763 15.4910136,1.99743419 L15.5752309,1.83593529 C15.5821664,1.8240458 15.5970282,1.79927603 15.6039638,1.78639575 L15.6792639,1.66849165 C15.693135,1.64966663 15.7188955,1.61102579 15.7327666,1.59120997 C15.7674443,1.53572569 15.8367996,1.42574791 15.8714773,1.37026363 C15.8764312,1.35441098 15.8853484,1.32270567 15.8903023,1.30685302 L15.9774919,1.14337254 C15.9814551,1.13544622 15.9893814,1.12157515 15.9933446,1.11364882 L16.0944052,0.94323281 C16.1023315,0.928370948 16.1201658,0.898647225 16.1290829,0.883785364 C16.138,0.866941921 16.1558342,0.835236616 16.1647514,0.819383964 L16.2638304,0.643023208 C16.2687844,0.636087672 16.2767107,0.621225811 16.2806739,0.614290275 L16.374799,0.454772962 C16.3777714,0.449819008 16.3847069,0.43892031 16.3876793,0.433966356 Z" id="Path"></path>
                                        </g>
                                        <path d="M16.6006993,0.107996194 C19.8187877,0.0931343321 23.0378669,0.106014612 26.2569461,0.101060658 C28.9201917,0.110968566 31.5854188,0.0802540521 34.2476736,0.11592252 C34.3001855,0.216983178 34.3536882,0.317053045 34.4101633,0.417122913 C34.4180896,0.430003193 34.4329515,0.457745334 34.4408778,0.471616405 C34.6984834,0.920444622 34.9600522,1.36729126 35.2146854,1.81711027 C35.2196394,1.82503659 35.2275657,1.83989845 35.2325197,1.84683399 C35.7259335,2.69396009 36.2173657,3.54207699 36.7018624,4.39415705 C36.7058255,4.40109259 36.7147426,4.41496366 36.7187058,4.42288998 C36.8068862,4.57448097 36.8980389,4.72607196 36.9882009,4.87865373 C36.9961272,4.89153401 37.0109891,4.91828537 37.0189154,4.93215644 C37.1427643,5.1501304 37.2676039,5.36711358 37.3934343,5.58409676 C37.3983883,5.5910323 37.4063146,5.60490337 37.4102778,5.61282969 C37.5361082,5.82882208 37.659957,6.04679605 37.7847967,6.26477002 C37.792723,6.2776503 37.8075849,6.30341086 37.8155112,6.31629114 C37.9413416,6.52832036 38.0632089,6.74233117 38.1840854,6.95634197 C38.1920117,6.96922225 38.2068735,6.9959736 38.2147999,7.00885388 C39.397804,9.05186444 40.5778358,11.0958658 41.7568769,13.1418487 C41.6221293,13.7353324 41.9480995,14.3258437 41.7667848,14.9222997 C41.656807,16.5521505 41.0415259,18.1384066 40.0269562,19.4185082 C39.6970229,19.7761837 40.0170483,20.2725699 39.9813798,20.6966283 C39.6256859,21.1276223 39.1679406,21.4496293 38.7359558,21.7973969 C38.7369466,22.1223762 38.7379374,22.4473556 38.7230755,22.7733258 C38.3376579,23.027959 37.8957652,23.1755868 37.5044029,23.4213029 C37.4627897,23.5530781 37.4201857,23.6858441 37.3795633,23.8196008 C37.0654826,23.9682194 36.7296045,24.0643261 36.4155238,24.2149263 C35.1720814,23.8582417 33.9415193,23.4609346 32.7010493,23.0933512 C31.546778,22.7118967 30.3647646,22.4126779 29.2223829,21.9925826 L29.1569907,21.8756693 C29.1510459,21.8667522 29.141138,21.848918 29.1361841,21.8400009 L29.042059,21.6804836 C29.032151,21.6636401 29.0123352,21.6299532 29.0024273,21.6131098 C28.9935102,21.5982479 28.9776576,21.569515 28.9687404,21.5546531 C28.8983943,21.4298135 28.8339929,21.3020015 28.776527,21.1712171 L28.7705823,21.1583368 L28.7636467,21.1484289 C28.720052,21.0790736 28.6318716,20.9393721 28.587286,20.8700167 C28.582332,20.8620904 28.5724241,20.8462377 28.5674702,20.8373206 L28.5387372,20.7917442 C28.5218938,20.7630113 28.4872161,20.7065362 28.4703727,20.6778033 C28.4277687,20.6054756 28.3415699,20.4608201 28.2989659,20.3884924 C28.2880672,20.3706582 28.2672606,20.3339989 28.2563619,20.3161647 L28.1959236,20.2131224 C28.1879973,20.1992514 28.1721447,20.1725 28.1642183,20.1586289 L28.0681116,19.9931669 C28.0641485,19.9862313 28.0552313,19.9723603 28.0512682,19.9644339 L27.9502075,19.7910456 C27.9412904,19.7751929 27.9234562,19.7434876 27.9145391,19.7286257 C27.9046312,19.7107915 27.8838245,19.6741323 27.8739166,19.656298 L27.791681,19.5116426 C27.7817731,19.4947991 27.7619573,19.4591307 27.7520494,19.4422872 L27.6886388,19.3303279 C27.6797216,19.315466 27.6628782,19.2857423 27.6539611,19.2708804 C27.6153202,19.1995435 27.5370478,19.0578604 27.4974161,18.9865235 C27.493453,18.9785971 27.4835451,18.9617537 27.4795819,18.9538274 L27.4528306,18.9072602 C27.4340055,18.8795181 27.3973463,18.8240338 27.3785213,18.7962916 C27.280433,18.6318204 27.1882894,18.4633859 27.100109,18.2939607 C27.0951551,18.2860344 27.086238,18.2691909 27.0822748,18.2612646 L27.0565143,18.2156882 C27.0376892,18.1889369 27.0000392,18.1354342 26.9812142,18.1096736 C26.9376194,18.0314012 26.8504298,17.8748562 26.806835,17.7965837 C26.801881,17.7886574 26.7919731,17.771814 26.78801,17.7628969 L26.7612586,17.7153389 C26.7414428,17.6826428 26.702802,17.6182414 26.6829861,17.5855453 L26.5977781,17.4418807 C26.5898518,17.4280096 26.5730084,17.4002674 26.5640912,17.3854056 C26.5264412,17.3200134 26.4501503,17.1882382 26.4115095,17.122846 C26.4025923,17.1079842 26.3857489,17.0772697 26.3768318,17.061417 C26.309458,16.9494576 26.2450566,16.8365075 26.181646,16.7235573 C26.1766921,16.7146402 26.1657934,16.696806 26.1608394,16.6878889 L26.0667143,16.52639 C26.0568064,16.5105373 26.0379813,16.478832 26.0290642,16.4619886 C26.0201471,16.4471267 26.0033037,16.417403 25.9943866,16.4025411 L25.8943167,16.228162 C25.8893627,16.2202356 25.8804456,16.2033922 25.8754917,16.1954659 L25.7942468,16.0498196 C25.7873113,16.0379301 25.774431,16.015142 25.7674955,16.0032525 C25.7298454,15.9368695 25.6535545,15.8050943 25.6159045,15.7387113 C25.6079782,15.7248403 25.5921255,15.6980889 25.5841992,15.6852086 C25.5227701,15.5831572 25.4613411,15.4801149 25.4018937,15.3780635 C22.6544309,10.6103783 19.9030049,5.84566552 17.1495974,1.08095273 C16.9771998,0.783715496 16.8206548,0.474588777 16.6096164,0.201130526 L16.6046625,0.156544941 L16.6006993,0.107996194 Z" id="Path" fill="#FCCD48"></path>
                                        <g id="Group" transform="translate(10.601461, 0.099079)" fill="#089156">
                                            <polygon id="Path" points="5.95049118 0.0622216591 6.01244863 0.0600088931 6.01798055 0.109796127 5.94053374 0.12196634"></polygon>
                                            <path d="M6.00815521,0.102051449 C6.21919364,0.375509701 6.37573858,0.68463642 6.54813618,0.98187365 C9.30154372,5.74658645 12.0529697,10.5112992 14.8004325,15.2789844 C13.5282571,17.4943926 12.2461739,19.7048468 10.9690446,21.9182733 C10.7976378,20.8581272 10.4776124,19.8296864 10.2735095,18.775485 C9.9574472,17.6449928 9.78207724,16.4808136 9.45511629,15.3523029 C9.07861579,13.5292479 8.61987967,11.7220456 8.2087015,9.90592608 C7.58153095,7.25754237 6.97913016,4.6032139 6.38267412,1.94690386 C6.24396341,1.33558595 6.05967633,0.730212795 6.00815521,0.102051449 Z" id="Path"></path>
                                            <path d="M5.77836606,0.362687214 C5.78168521,0.357155299 5.78942989,0.344985086 5.79274904,0.339453171 C5.78942989,0.344985086 5.78168521,0.357155299 5.77836606,0.362687214 Z" id="Path"></path>
                                            <path d="M5.66716631,0.551399829 C5.67269822,0.543655148 5.68154929,0.527059403 5.68597482,0.519314722 C5.68154929,0.527059403 5.67269822,0.543655148 5.66716631,0.551399829 Z" id="Path"></path>
                                            <path d="M5.53132064,0.794242645 C5.54127808,0.775434134 5.56119298,0.740029879 5.57115042,0.722327751 C5.56119298,0.740029879 5.54127808,0.775434134 5.53132064,0.794242645 Z" id="Path"></path>
                                            <path d="M5.49670076,0.85340111 C5.50555182,0.836805365 5.52546671,0.803613876 5.53542416,0.787018131 C5.52546671,0.803613876 5.50555182,0.836805365 5.49670076,0.85340111 Z" id="Path"></path>
                                            <path d="M5.38088557,1.05180696 C5.3853111,1.0429559 5.39416217,1.02746654 5.3985877,1.01861547 C5.39416217,1.02746654 5.3853111,1.0429559 5.38088557,1.05180696 Z" id="Path"></path>
                                            <path d="M5.27469757,1.28066311 C5.28022949,1.26296099 5.29018693,1.22755673 5.29571885,1.2098546 C5.29018693,1.22755673 5.28022949,1.26296099 5.27469757,1.28066311 Z" id="Path"></path>
                                            <path d="M5.13130538,1.49213089 C5.16598306,1.43664661 5.23533841,1.32666884 5.27001609,1.27118455 C5.23533841,1.32666884 5.16598306,1.43664661 5.13130538,1.49213089 Z" id="Path"></path>
                                            <path d="M5.0804613,1.57970028 C5.09595066,1.558679 5.12471662,1.51553007 5.14020598,1.49340241 C5.12471662,1.51553007 5.09595066,1.558679 5.0804613,1.57970028 Z" id="Path"></path>
                                            <path d="M4.97787317,1.74552563 C4.98561785,1.73224903 5.0022136,1.70458946 5.00995828,1.69020648 C5.0022136,1.70458946 4.98561785,1.73224903 4.97787317,1.74552563 Z" id="Path"></path>
                                            <path d="M4.87960324,1.97543863 C4.88292239,1.95663012 4.89177345,1.91901309 4.89619899,1.90020458 C4.89177345,1.91901309 4.88292239,1.95663012 4.87960324,1.97543863 Z" id="Path"></path>
                                            <path d="M4.73003512,2.18370285 C4.76669438,2.12920936 4.83803131,2.02022237 4.87469057,1.96572888 C4.83803131,2.02022237 4.76669438,2.12920936 4.73003512,2.18370285 Z" id="Path"></path>
                                            <path d="M4.6823368,2.27022365 C4.69671978,2.24920237 4.72548574,2.20605344 4.73876233,2.18503216 C4.72548574,2.20605344 4.69671978,2.24920237 4.6823368,2.27022365 Z" id="Path"></path>
                                            <path d="M4.57986426,2.43960759 C4.58650256,2.42743738 4.59977916,2.40420333 4.60641746,2.3931395 C4.59977916,2.40420333 4.58650256,2.42743738 4.57986426,2.43960759 Z" id="Path"></path>
                                            <path d="M4.44419198,2.67802487 C4.45525581,2.65921636 4.47738347,2.62049296 4.4884473,2.60057806 C4.47738347,2.62049296 4.45525581,2.65921636 4.44419198,2.67802487 Z" id="Path"></path>
                                            <path d="M4.4087547,2.73899153 C4.41871215,2.7212894 4.43862704,2.68809791 4.44858449,2.67039579 C4.43862704,2.68809791 4.41871215,2.7212894 4.4087547,2.73899153 Z" id="Path"></path>
                                            <path d="M4.29189093,2.93530021 C4.29742284,2.92755553 4.30738029,2.91095978 4.31180582,2.90210872 C4.30738029,2.91095978 4.29742284,2.92755553 4.29189093,2.93530021 Z" id="Path"></path>
                                            <path d="M4.18301954,3.12547424 C4.18744507,3.11772956 4.19629613,3.1022402 4.20072166,3.09338913 C4.19629613,3.1022402 4.18744507,3.11772956 4.18301954,3.12547424 Z" id="Path"></path>
                                            <path d="M4.04397031,3.36639327 C4.05503414,3.34869114 4.07605541,3.31107412 4.08711924,3.29337199 C4.07605541,3.31107412 4.05503414,3.34869114 4.04397031,3.36639327 Z" id="Path"></path>
                                            <path d="M4.00532947,3.43283405 C4.0163933,3.41402554 4.03741458,3.3775149 4.0484784,3.35870639 C4.03741458,3.3775149 4.0163933,3.41402554 4.00532947,3.43283405 Z" id="Path"></path>
                                            <path d="M3.89277564,3.62669878 C3.89609479,3.61895409 3.90494585,3.60457112 3.90937138,3.59682644 C3.90494585,3.60457112 3.89609479,3.61895409 3.89277564,3.62669878 Z" id="Path"></path>
                                            <path d="M3.78961781,3.86091346 C3.79404334,3.84210494 3.80400078,3.80448792 3.80842632,3.78567941 C3.80400078,3.80448792 3.79404334,3.84210494 3.78961781,3.86091346 Z" id="Path"></path>
                                            <path d="M3.64016528,4.07215005 C3.67583374,4.01666577 3.74816147,3.9056972 3.78482073,3.85120371 C3.74816147,3.9056972 3.67583374,4.01666577 3.64016528,4.07215005 Z" id="Path"></path>
                                            <path d="M3.59456413,4.15762226 C3.60784073,4.13660099 3.63439392,4.09455843 3.6487769,4.07353716 C3.63439392,4.09455843 3.60784073,4.13660099 3.59456413,4.15762226 Z" id="Path"></path>
                                            <path d="M3.46920433,4.37235965 C3.48580007,4.34362672 3.51788518,4.28715165 3.53337454,4.25841871 C3.51788518,4.28715165 3.48580007,4.34362672 3.46920433,4.37235965 Z" id="Path"></path>
                                            <path d="M3.36959683,4.56611704 C3.38397981,4.54398938 3.41163938,4.49862768 3.42491598,4.47650002 C3.41163938,4.49862768 3.38397981,4.54398938 3.36959683,4.56611704 Z" id="Path"></path>
                                            <path d="M3.31376577,4.64322533 C3.32925513,4.62109767 3.36023386,4.57905512 3.37572322,4.55692746 C3.36023386,4.57905512 3.32925513,4.62109767 3.31376577,4.64322533 Z" id="Path"></path>
                                            <path d="M3.19918082,4.82284744 C3.2135638,4.80071978 3.24122337,4.7542517 3.25449997,4.73101765 C3.24122337,4.7542517 3.2135638,4.80071978 3.19918082,4.82284744 Z" id="Path"></path>
                                            <path d="M3.06967621,5.08004021 C3.08184642,5.0545934 3.10729323,5.0025934 3.11946344,4.97714659 C3.10729323,5.0025934 3.08184642,5.0545934 3.06967621,5.08004021 Z" id="Path"></path>
                                            <path d="M2.97234753,5.26060357 C2.98562412,5.23847591 3.0132837,5.19422059 3.02656029,5.17209293 C3.0132837,5.19422059 2.98562412,5.23847591 2.97234753,5.26060357 Z" id="Path"></path>
                                            <path d="M2.91645867,5.33567249 C2.93194803,5.31465121 2.96292676,5.27260866 2.97841612,5.25158738 C2.96292676,5.27260866 2.93194803,5.31465121 2.91645867,5.33567249 Z" id="Path"></path>
                                            <path d="M2.78404774,5.53951118 C2.80174987,5.50978745 2.83936689,5.44934922 2.8581754,5.4186347 C2.83936689,5.44934922 2.80174987,5.50978745 2.78404774,5.53951118 Z" id="Path"></path>
                                            <path d="M2.69556187,5.74207009 C2.7066257,5.71994243 2.72654059,5.67679349 2.73760442,5.65466583 C2.72654059,5.67679349 2.7066257,5.71994243 2.69556187,5.74207009 Z" id="Path"></path>
                                            <path d="M2.55624018,5.95068934 C2.58992706,5.89520506 2.65829163,5.78621808 2.69197851,5.73172458 C2.65829163,5.78621808 2.58992706,5.89520506 2.55624018,5.95068934 Z" id="Path"></path>
                                            <path d="M2.50434751,6.0403559 C2.51983687,6.01822824 2.54970921,5.97397293 2.56519857,5.95184527 C2.54970921,5.97397293 2.51983687,6.01822824 2.50434751,6.0403559 Z" id="Path"></path>
                                            <path d="M2.40385656,6.20798945 C2.41160124,6.19471285 2.4270906,6.16705328 2.43483528,6.15377668 C2.4270906,6.16705328 2.41160124,6.19471285 2.40385656,6.20798945 Z" id="Path"></path>
                                            <path d="M2.29294579,6.43132194 C2.29958408,6.41583258 2.31507345,6.38485386 2.32281813,6.36936449 C2.31507345,6.38485386 2.29958408,6.41583258 2.29294579,6.43132194 Z" id="Path"></path>
                                            <path d="M2.14803438,6.6640587 C2.18271206,6.60362046 2.2530582,6.48274399 2.28872667,6.42230575 L2.29566221,6.53822827 C2.25900295,6.56993357 2.18469364,6.63334418 2.14803438,6.6640587 Z" id="Path"></path>
                                            <path d="M2.1129191,6.72751058 C2.12398293,6.71202122 2.14500421,6.68214888 2.15606804,6.66665952 C2.14500421,6.68214888 2.12398293,6.71202122 2.1129191,6.72751058 Z" id="Path"></path>
                                            <path d="M1.98413282,6.94940644 C2.00404771,6.9107656 2.04498388,6.83348392 2.06489878,6.79484308 C2.04498388,6.83348392 2.00404771,6.9107656 1.98413282,6.94940644 Z" id="Path"></path>
                                            <path d="M1.88241989,7.14211524 C1.89569649,7.11998758 1.92335606,7.07573226 1.93773904,7.0536046 C1.92335606,7.07573226 1.89569649,7.11998758 1.88241989,7.14211524 Z" id="Path"></path>
                                            <path d="M1.82763742,7.21928132 C1.84312678,7.19715366 1.87299912,7.15400473 1.88848848,7.13298345 C1.87299912,7.15400473 1.84312678,7.19715366 1.82763742,7.21928132 Z" id="Path"></path>
                                            <path d="M1.71398546,7.39680626 C1.72726205,7.3746786 1.75492163,7.3293169 1.76930461,7.30718924 C1.75492163,7.3293169 1.72726205,7.3746786 1.71398546,7.39680626 Z" id="Path"></path>
                                            <path d="M1.59659327,7.60261827 C1.60323156,7.59155444 1.61650816,7.56721402 1.62314646,7.55615019 C1.61650816,7.56721402 1.60323156,7.59155444 1.59659327,7.60261827 Z" id="Path"></path>
                                            <path d="M1.49209787,7.79068687 C1.50094893,7.77519751 1.51865106,7.74421879 1.52750212,7.72872943 C1.51865106,7.74421879 1.50094893,7.77519751 1.49209787,7.79068687 Z" id="Path"></path>
                                            <path d="M1.30483841,8.11065449 C1.31368948,8.09627152 1.3313916,8.06529279 1.34024267,8.04980343 C1.3313916,8.06529279 1.31368948,8.09627152 1.30483841,8.11065449 Z" id="Path"></path>
                                            <path d="M1.19958341,8.29435536 C1.20954085,8.27665323 1.22945575,8.24235536 1.23941319,8.22575961 C1.22945575,8.24235536 1.20954085,8.27665323 1.19958341,8.29435536 Z" id="Path"></path>
                                            <path d="M1.07125123,8.51820802 C1.08342144,8.49718674 1.10776187,8.45403781 1.12103847,8.43191015 C1.10776187,8.45403781 1.08342144,8.49718674 1.07125123,8.51820802 Z" id="Path"></path>
                                            <path d="M1.03190858,8.58395524 C1.04297241,8.56625312 1.06510007,8.52863609 1.0761639,8.50982758 C1.06510007,8.52863609 1.04297241,8.56625312 1.03190858,8.58395524 Z" id="Path"></path>
                                            <path d="M0.91836396,8.77589619 C0.922789492,8.76815151 0.931640555,8.75266214 0.936066087,8.74491746 C0.931640555,8.75266214 0.922789492,8.76815151 0.91836396,8.77589619 Z" id="Path"></path>
                                            <path d="M0.817361098,9.01314103 C0.82178663,8.99322614 0.82953131,8.95450274 0.833956842,8.93569423 C0.82953131,8.95450274 0.82178663,8.99322614 0.817361098,9.01314103 Z" id="Path"></path>
                                            <path d="M0.667792977,9.21831729 C0.703461444,9.16481459 0.77578917,9.0568184 0.812448429,9.0033157 C0.77578917,9.0568184 0.703461444,9.16481459 0.667792977,9.21831729 Z" id="Path"></path>
                                            <path d="M0.61904607,9.30588668 C0.633429049,9.2848654 0.662195006,9.24171647 0.676577985,9.21958881 C0.662195006,9.24171647 0.633429049,9.2848654 0.61904607,9.30588668 Z" id="Path"></path>
                                            <path d="M0.519372518,9.46862406 C0.527117199,9.45534747 0.542606561,9.42879428 0.550351242,9.41551768 C0.542606561,9.42879428 0.527117199,9.45534747 0.519372518,9.46862406 Z" id="Path"></path>
                                            <path d="M0.380959048,9.71467869 C0.392022878,9.6947638 0.414150538,9.65604039 0.425214368,9.6361255 C0.414150538,9.65604039 0.392022878,9.6947638 0.380959048,9.71467869 Z" id="Path"></path>
                                            <path d="M0.344473178,9.77558756 C0.354430625,9.75899181 0.374345519,9.72358756 0.385409349,9.70699181 C0.374345519,9.72358756 0.354430625,9.75899181 0.344473178,9.77558756 Z" id="Path"></path>
                                            <path d="M0.230697372,9.96880827 C0.235122904,9.96106359 0.243973967,9.94557423 0.249505882,9.93782955 C0.243973967,9.94557423 0.235122904,9.96106359 0.230697372,9.96880827 Z" id="Path"></path>
                                            <path d="M0.120950781,10.1577603 C0.12426993,10.151122 0.132014611,10.1389518 0.13533376,10.1323135 C0.132014611,10.1389518 0.12426993,10.151122 0.120950781,10.1577603 Z" id="Path"></path>
                                            <path d="M10.6923663,22.37767 C10.7111748,22.3497612 10.7510046,22.2939437 10.7698131,22.2670317 C10.7510046,22.2939437 10.7111748,22.3497612 10.6923663,22.37767 Z" id="Path"></path>
                                            <path d="M10.6517769,22.461978 C10.6573088,22.453127 10.6672662,22.4343185 10.6716918,22.4254674 C10.6672662,22.4343185 10.6573088,22.453127 10.6517769,22.461978 Z" id="Path"></path>
                                            <path d="M10.4667962,22.7979634 C10.4756473,22.7835805 10.492243,22.7548145 10.4999877,22.7404315 C10.492243,22.7548145 10.4756473,22.7835805 10.4667962,22.7979634 Z" id="Path"></path>
                                            <path d="M10.362532,22.9816643 C10.3713831,22.9650686 10.3901916,22.9329834 10.400149,22.9163877 C10.3901916,22.9329834 10.3713831,22.9650686 10.362532,22.9816643 Z" id="Path"></path>
                                            <path d="M10.2633869,23.1554738 C10.2689188,23.1466227 10.2788762,23.1289206 10.2833018,23.1200695 C10.2788762,23.1289206 10.2689188,23.1466227 10.2633869,23.1554738 Z" id="Path"></path>
                                            <path d="M10.1246266,23.3980276 C10.1345841,23.3803255 10.154499,23.3449212 10.1644564,23.3283255 C10.154499,23.3449212 10.1345841,23.3803255 10.1246266,23.3980276 Z" id="Path"></path>
                                            <path d="M10.0847638,23.4646418 C10.0958276,23.4458333 10.1179553,23.4093226 10.1290191,23.3905141 C10.1179553,23.4093226 10.0958276,23.4458333 10.0847638,23.4646418 Z" id="Path"></path>
                                            <path d="M9.95345101,23.6897907 C9.96230208,23.6754077 9.9800042,23.644429 9.98885527,23.630046 C9.9800042,23.644429 9.96230208,23.6754077 9.95345101,23.6897907 Z" id="Path"></path>
                                            <path d="M9.84983081,23.8672496 C9.86089464,23.8473347 9.88523507,23.8063985 9.8962989,23.7864836 C9.88523507,23.8063985 9.86089464,23.8473347 9.84983081,23.8672496 Z" id="Path"></path>
                                            <path d="M9.6643135,24.1899089 C9.67205818,24.1755259 9.68865392,24.1478663 9.6963986,24.1345897 C9.68865392,24.1478663 9.67205818,24.1755259 9.6643135,24.1899089 Z" id="Path"></path>
                                            <path d="M9.55848053,24.3686475 C9.57065074,24.3476262 9.59499117,24.3077965 9.606055,24.2867752 C9.59499117,24.3077965 9.57065074,24.3476262 9.55848053,24.3686475 Z" id="Path"></path>
                                            <path d="M9.37564661,24.6849492 C9.38560405,24.6683535 9.40441257,24.6340556 9.41437001,24.6174599 C9.40441257,24.6340556 9.38560405,24.6683535 9.37564661,24.6849492 Z" id="Path"></path>
                                            <path d="M9.27399973,24.8665612 C9.28174441,24.8532846 9.29723377,24.825625 9.30497846,24.8123484 C9.29723377,24.825625 9.28174441,24.8532846 9.27399973,24.8665612 Z" id="Path"></path>
                                            <path d="M9.16577235,25.0562068 C9.17462342,25.0407174 9.19232555,25.0097387 9.20117661,24.9942493 C9.19232555,25.0097387 9.17462342,25.0407174 9.16577235,25.0562068 Z" id="Path"></path>
                                            <path d="M8.97431855,25.3815329 C8.984276,25.3638308 9.00419089,25.3295329 9.01414834,25.3129372 C9.00419089,25.3295329 8.984276,25.3638308 8.97431855,25.3815329 Z" id="Path"></path>
                                            <path d="M8.87878981,25.5540544 C8.88542811,25.5407778 8.89981108,25.515331 8.90755577,25.5020544 C8.89981108,25.515331 8.88542811,25.5407778 8.87878981,25.5540544 Z" id="Path"></path>
                                            <path d="M8.76863864,25.7444596 C8.77638333,25.731183 8.79297907,25.7035234 8.80072375,25.6891404 C8.79297907,25.7035234 8.77638333,25.731183 8.76863864,25.7444596 Z" id="Path"></path>
                                            <path d="M8.57234648,26.0804532 C8.58119754,26.0660703 8.59889967,26.0373043 8.60664435,26.0229213 C8.59889967,26.0373043 8.58119754,26.0660703 8.57234648,26.0804532 Z" id="Path"></path>
                                            <path d="M8.47169865,26.2499858 C8.48276248,26.2300709 8.50599652,26.1913475 8.51706035,26.1714326 C8.50599652,26.1913475 8.48276248,26.2300709 8.47169865,26.2499858 Z" id="Path"></path>
                                            <path d="M8.29719563,26.5546952 C8.30383393,26.542525 8.31932329,26.5159718 8.32596159,26.5038016 C8.31932329,26.5159718 8.30383393,26.542525 8.29719563,26.5546952 Z" id="Path"></path>
                                            <path d="M8.1922874,26.7417813 C8.1989257,26.7296111 8.21220229,26.7063771 8.21884059,26.6942068 C8.21220229,26.7063771 8.1989257,26.7296111 8.1922874,26.7417813 Z" id="Path"></path>
                                            <path d="M8.08108765,26.9331773 C8.08883233,26.9210071 8.10432169,26.8944539 8.11206637,26.8822837 C8.10432169,26.8944539 8.08883233,26.9210071 8.08108765,26.9331773 Z" id="Path"></path>
                                            <path d="M7.88311114,27.2645555 C7.89528135,27.2446406 7.91740901,27.2048109 7.92957923,27.1860023 C7.91740901,27.2048109 7.89528135,27.2446406 7.88311114,27.2645555 Z" id="Path"></path>
                                            <path d="M7.79562432,27.4271113 C7.803369,27.4127283 7.81996474,27.3817496 7.82881581,27.3662602 C7.81996474,27.3817496 7.803369,27.4127283 7.79562432,27.4271113 Z" id="Path"></path>
                                            <path d="M7.6596548,27.6632085 C7.66850586,27.6466127 7.68842075,27.6134212 7.69727182,27.5968255 C7.68842075,27.6134212 7.66850586,27.6466127 7.6596548,27.6632085 Z" id="Path"></path>
                                            <path d="M7.6270165,27.7195101 C7.63586756,27.7040208 7.65356969,27.6719357 7.66352714,27.6564463 C7.65356969,27.6719357 7.63586756,27.7040208 7.6270165,27.7195101 Z" id="Path"></path>
                                        </g>
                                        <g id="Group" transform="translate(34.281361, 0.297237)" fill="#10985B">
                                            <path d="M0.132790731,0.122486508 C0.141641795,0.136869486 0.158237539,0.16784821 0.167088603,0.183337571 C0.158237539,0.16784821 0.141641795,0.136869486 0.132790731,0.122486508 Z" id="Path"></path>
                                            <path d="M0.938064183,1.52391876 C0.943596098,1.53276983 0.952447162,1.54936557 0.957979076,1.55711025 C0.952447162,1.54936557 0.943596098,1.53276983 0.938064183,1.52391876 Z" id="Path"></path>
                                            <path d="M2.42529892,4.10102334 C2.42972445,4.10876802 2.4396819,4.12425739 2.44410743,4.13310845 C2.4396819,4.12425739 2.42972445,4.10876802 2.42529892,4.10102334 Z" id="Path"></path>
                                            <path d="M2.71082831,4.58407513 C2.71967937,4.5984581 2.73627511,4.62833044 2.74512618,4.64381981 C2.73627511,4.62833044 2.71967937,4.5984581 2.71082831,4.58407513 Z" id="Path"></path>
                                            <path d="M3.11687087,5.29096305 C3.12240279,5.29870773 3.13125385,5.3141971 3.13567939,5.32304816 C3.13125385,5.3141971 3.12240279,5.29870773 3.11687087,5.29096305 Z" id="Path"></path>
                                            <path d="M3.50742408,5.970307 C3.51627515,5.98468998 3.53287089,6.01345594 3.54172195,6.02783892 C3.53287089,6.01345594 3.51627515,5.98468998 3.50742408,5.970307 Z" id="Path"></path>
                                            <path d="M3.90671276,6.66182116 C3.91556382,6.67620414 3.93215957,6.70607648 3.94101063,6.72045946 C3.93215957,6.70607648 3.91556382,6.67620414 3.90671276,6.66182116 Z" id="Path"></path>
                                        </g>
                                        <g id="Group" transform="translate(36.362021, 13.078438)" fill="#F9C941">
                                            <path d="M5.39485572,0.0634106091 C7.11784087,3.04866319 8.85172471,6.02896181 10.5608388,9.02313151 C10.5687651,9.03601179 10.5846178,9.06375393 10.5925441,9.07663421 C10.6321757,9.1420264 10.711439,9.27181999 10.7500798,9.33622139 C10.7580061,9.34910167 10.7738588,9.37585302 10.7817851,9.3887333 L10.8610484,9.52447164 C10.8660023,9.53338876 10.8759102,9.55221378 10.881855,9.5611309 L10.9809341,9.73352849 C10.990842,9.75037193 11.009667,9.78504961 11.0195749,9.80189305 C11.028492,9.81675492 11.0463263,9.84746943 11.0552434,9.86332208 L11.1523409,10.0317565 C11.156304,10.038692 11.1642304,10.0525631 11.1681935,10.0594987 L11.265291,10.2259515 C11.2692542,10.232887 11.2771805,10.2457673 11.2811437,10.2527029 L11.3782412,10.4211373 C11.3881491,10.4379807 11.4069741,10.4706768 11.416882,10.4875203 C11.4257991,10.5043637 11.4446241,10.5370598 11.4535413,10.5529125 L11.5536111,10.7292732 C11.5674822,10.7639509 11.5952243,10.8313247 11.6090954,10.8650115 L11.6368376,10.919505 L11.6497178,10.948238 L11.6715152,10.9769709 L11.7299719,11.0651513 C11.7507785,11.0978474 11.7914009,11.1632396 11.8122075,11.1959357 C11.824097,11.2157515 11.8498576,11.2553831 11.8617471,11.2751989 L11.9271392,11.379232 C11.9469551,11.4238175 11.9865867,11.5139795 12.0064025,11.5585651 L12.0361262,11.6120678 L12.0470249,11.6328744 L12.055942,11.6457547 C12.0995368,11.7101561 12.1857356,11.8399497 12.2293304,11.9043511 C12.2402291,11.9221853 12.2620265,11.9578538 12.273916,11.975688 L12.3333635,12.0747671 C12.3422806,12.0906197 12.3601148,12.1213342 12.3690319,12.1361961 L12.4691018,12.3115661 C12.4780189,12.3274187 12.4958531,12.359124 12.5047703,12.3749767 C12.5136874,12.3908293 12.5315216,12.4215438 12.5404387,12.4373965 L12.6395178,12.6068217 C12.643481,12.614748 12.6523981,12.6296099 12.657352,12.6365454 L12.747514,12.795072 C12.7534587,12.8049799 12.7653482,12.8257865 12.771293,12.8356944 L12.8624457,12.9952117 C12.8733444,13.0130459 12.894151,13.0497052 12.9050497,13.0675394 C12.9139669,13.0833921 12.9327919,13.1150974 12.941709,13.13095 C13.0150275,13.2528173 13.0853737,13.3766661 13.1507658,13.5034874 C13.1606738,13.524294 13.1804896,13.5659072 13.1894067,13.5867138 L13.2349831,13.689756 C13.2468725,13.7095718 13.2706515,13.7501943 13.2815502,13.7700101 C13.2964121,13.7898259 13.325145,13.8274759 13.3400069,13.846301 L13.4083714,13.9433985 C13.4202609,13.9622235 13.4440399,13.9998735 13.4569202,14.0196893 L13.5569901,14.1930777 C13.5659072,14.2089304 13.5837414,14.2406357 13.5926585,14.2564883 C13.6015756,14.272341 13.6194099,14.3030555 13.6293178,14.3189082 L13.7283969,14.4893242 C13.73236,14.4972505 13.7402864,14.5111216 13.7442495,14.5180571 L13.8383746,14.6825284 C13.8423378,14.6894639 13.8502641,14.7023442 13.8542273,14.7092797 L13.950334,14.8767234 C13.9602419,14.8935668 13.9800577,14.9272537 13.9899656,14.9450879 C13.9998735,14.9619314 14.0196893,14.9956183 14.0286065,15.0124617 L14.1276855,15.1828777 C14.1316487,15.1898132 14.1385842,15.2036843 14.1425474,15.2106198 L14.2475712,15.4067964 L14.2465804,15.4959676 C11.7676219,14.783589 9.32829507,13.9384445 6.84240103,13.2518265 C4.58637046,12.5235953 2.30953328,11.8607563 0.0535027014,11.1364882 C0.367583374,10.985888 0.703461444,10.8897813 1.01754212,10.7411627 C1.05816454,10.6074059 1.10076854,10.47464 1.14238175,10.3428648 C1.53374411,10.0971487 1.97563679,9.94952088 2.3610544,9.69488765 C2.37591626,9.36891749 2.37492547,9.04393812 2.37393468,8.71895875 C2.80591945,8.37119119 3.26366479,8.04918419 3.61935867,7.6181902 C3.65502714,7.19413176 3.33500172,6.69774558 3.66493505,6.34007012 C4.67950479,5.05996844 5.29478586,3.47371243 5.40476363,1.84386162 C5.58607834,1.24740558 5.26010818,0.656894278 5.39485572,0.0634106091 Z" id="Path"></path>
                                            <polygon id="Path" points="14.2476786 15.4970079 14.3052105 15.4992207 14.3372956 15.5833058 14.272019 15.5877313"></polygon>
                                        </g>
                                        <g id="Group" transform="translate(25.463323, 15.654494)" fill="#E3B73A">
                                            <path d="M0.124806609,0.0333731346 C0.133657673,0.0477561134 0.1513598,0.0776284538 0.160210864,0.0931178155 C0.1513598,0.0776284538 0.133657673,0.0477561134 0.124806609,0.0333731346 Z" id="Path"></path>
                                            <path d="M0.308391881,0.351821543 C0.316136562,0.365098139 0.330519541,0.390544948 0.338264222,0.403821543 C0.330519541,0.390544948 0.316136562,0.365098139 0.308391881,0.351821543 Z" id="Path"></path>
                                            <path d="M0.416850443,0.544844098 C0.422382358,0.553695161 0.432339805,0.572503672 0.43787172,0.581354736 C0.432339805,0.572503672 0.422382358,0.553695161 0.416850443,0.544844098 Z" id="Path"></path>
                                            <path d="M0.534820598,0.750358873 C0.544778045,0.766954618 0.563586555,0.800146107 0.573544002,0.816741852 C0.563586555,0.800146107 0.544778045,0.766954618 0.534820598,0.750358873 Z" id="Path"></path>
                                            <path d="M0.569324886,0.809517338 C0.579282333,0.828325849 0.60030361,0.863730104 0.611367439,0.881432232 C0.60030361,0.863730104 0.579282333,0.828325849 0.569324886,0.809517338 Z" id="Path"></path>
                                            <path d="M0.702082592,1.03709372 C0.707614507,1.04705117 0.71978472,1.06696606 0.725316635,1.07692351 C0.71978472,1.06696606 0.707614507,1.04705117 0.702082592,1.03709372 Z" id="Path"></path>
                                            <path d="M0.917265834,1.40911914 C0.92722328,1.42682127 0.946031791,1.46111914 0.955989238,1.47771489 C0.946031791,1.46111914 0.92722328,1.42682127 0.917265834,1.40911914 Z" id="Path"></path>
                                            <path d="M1.10458308,1.7333967 C1.11454053,1.74999245 1.13334904,1.78097117 1.14220011,1.79646053 C1.13334904,1.78097117 1.11454053,1.74999245 1.10458308,1.7333967 Z" id="Path"></path>
                                            <path d="M1.22087715,1.9310512 C1.24300481,1.9637473 1.28615375,2.0281487 1.30828141,2.06084479 C1.28615375,2.0281487 1.24300481,1.9637473 1.22087715,1.9310512 Z" id="Path"></path>
                                            <path d="M1.32936874,2.11221729 C1.33379427,2.12217474 1.3448581,2.14098325 1.35039002,2.14983432 C1.3448581,2.14098325 1.33379427,2.12217474 1.32936874,2.11221729 Z" id="Path"></path>
                                            <path d="M1.51927856,2.45517952 C1.54029984,2.48206359 1.58234239,2.53789974 1.60336367,2.56581782 C1.58234239,2.53789974 1.54029984,2.48206359 1.51927856,2.45517952 Z" id="Path"></path>
                                            <path d="M1.62369139,2.61064285 C1.62811693,2.61949391 1.63807437,2.63830242 1.64360629,2.64715348 C1.63807437,2.63830242 1.62811693,2.61949391 1.62369139,2.61064285 Z" id="Path"></path>
                                            <path d="M1.91664345,3.14179752 C1.93766473,3.16953966 1.9786009,3.22502395 1.99962218,3.25276609 C1.9786009,3.22502395 1.93766473,3.16953966 1.91664345,3.14179752 Z" id="Path"></path>
                                            <path d="M2.02099849,3.30320559 C2.02542402,3.31205666 2.03648785,3.33086517 2.04091338,3.33971623 C2.03648785,3.33086517 2.02542402,3.31205666 2.02099849,3.30320559 Z" id="Path"></path>
                                            <path d="M2.19439513,3.61869814 C2.20435258,3.63529389 2.22316109,3.66848538 2.23311854,3.68508112 C2.22316109,3.66848538 2.20435258,3.63529389 2.19439513,3.61869814 Z" id="Path"></path>
                                            <path d="M2.29219444,3.78952698 C2.30325827,3.80833549 2.32538593,3.84816528 2.33644976,3.86697379 C2.32538593,3.84816528 2.30325827,3.80833549 2.29219444,3.78952698 Z" id="Path"></path>
                                            <path d="M2.41400391,4.0033644 C2.42506774,4.02327929 2.44830178,4.06421546 2.45936561,4.08413036 C2.44830178,4.06421546 2.42506774,4.02327929 2.41400391,4.0033644 Z" id="Path"></path>
                                            <path d="M2.45491531,4.07627009 C2.46487275,4.09286583 2.48478765,4.12827009 2.49474509,4.14597222 C2.48478765,4.12827009 2.46487275,4.09286583 2.45491531,4.07627009 Z" id="Path"></path>
                                            <path d="M2.59274256,4.31404336 C2.59716809,4.32289442 2.60712554,4.33838378 2.61155107,4.34612846 C2.60712554,4.33838378 2.59716809,4.32289442 2.59274256,4.31404336 Z" id="Path"></path>
                                            <path d="M2.70482576,4.50673565 C2.71367683,4.52222501 2.73137896,4.55209735 2.74023002,4.56758671 C2.73137896,4.55209735 2.71367683,4.52222501 2.70482576,4.50673565 Z" id="Path"></path>
                                            <path d="M2.79633355,4.66323105 C2.80850376,4.68314595 2.8317378,4.72408212 2.84390802,4.74399701 C2.8317378,4.72408212 2.80850376,4.68314595 2.79633355,4.66323105 Z" id="Path"></path>
                                            <path d="M3.00884166,5.02330919 C3.02765017,5.05204212 3.06637357,5.10851719 3.08518208,5.13725012 C3.06637357,5.10851719 3.02765017,5.05204212 3.00884166,5.02330919 Z" id="Path"></path>
                                            <path d="M3.10877116,5.18669884 C3.11430308,5.19665629 3.1253669,5.21435841 3.13089882,5.22320948 C3.1253669,5.21435841 3.11430308,5.19665629 3.10877116,5.18669884 Z" id="Path"></path>
                                            <path d="M3.3053523,5.4983851 L3.31309699,5.50944893 L3.31973528,5.52383191 C3.31641613,5.51719361 3.30867145,5.5050234 3.3053523,5.4983851 Z" id="Path"></path>
                                            <path d="M3.50923228,5.90252866 C3.51918972,5.9191244 3.53689185,5.95120951 3.5468493,5.96780525 C3.53689185,5.95120951 3.51918972,5.9191244 3.50923228,5.90252866 Z" id="Path"></path>
                                            <path d="M3.54257238,5.96046515 C3.55363621,5.97927366 3.57576387,6.01689068 3.5868277,6.03569919 C3.57576387,6.01689068 3.55363621,5.97927366 3.54257238,5.96046515 Z" id="Path"></path>
                                            <path d="M3.67742726,6.18920571 C3.68295918,6.19916315 3.69402301,6.21907805 3.70066131,6.22903549 C3.69402301,6.21907805 3.68295918,6.19916315 3.67742726,6.18920571 Z" id="Path"></path>
                                            <path d="M3.75906017,6.33808853 C4.90144192,6.75818382 6.08345531,7.05740263 7.23772655,7.43885708 C8.47819659,7.80644045 9.70875872,8.20374755 10.9522011,8.56043222 C13.2082317,9.28470027 15.4850689,9.9475393 17.7410995,10.6757705 C17.7074126,11.1582856 17.8025285,11.6526902 17.6826428,12.1262882 C17.5904993,12.5870059 17.0396196,12.6593336 16.8127285,13.026917 C13.7640653,13.0279078 10.7163929,13.0368249 7.66872053,13.0239446 L7.60332834,13.0189907 C6.34403328,10.7798035 5.03420789,8.56835855 3.75906017,6.33808853 Z" id="Path"></path>
                                        </g>
                                        <g id="Group" transform="translate(42.207687, 21.995555)" fill="#E8B835">
                                            <path d="M4.71910339,0.108673233 C4.72795446,0.123056212 4.74565658,0.154034935 4.75450765,0.168417914 C4.74565658,0.154034935 4.72795446,0.123056212 4.71910339,0.108673233 Z" id="Path"></path>
                                            <path d="M4.90834443,0.421820911 C4.91719549,0.43620389 4.93489762,0.46607623 4.94374869,0.480459209 C4.93489762,0.46607623 4.91719549,0.43620389 4.90834443,0.421820911 Z" id="Path"></path>
                                            <path d="M5.01994875,0.610995895 C5.02548067,0.620953341 5.0365445,0.641974618 5.0431828,0.651932065 C5.0365445,0.641974618 5.02548067,0.620953341 5.01994875,0.610995895 Z" id="Path"></path>
                                            <path d="M5.13879411,0.818203271 C5.14985794,0.837011782 5.17087921,0.875735186 5.18194304,0.894543696 C5.17087921,0.875735186 5.14985794,0.837011782 5.13879411,0.818203271 Z" id="Path"></path>
                                            <path d="M5.17760833,0.886972407 C5.18756578,0.903568151 5.20748067,0.937866024 5.21743812,0.955568151 C5.20748067,0.937866024 5.18756578,0.903568151 5.17760833,0.886972407 Z" id="Path"></path>
                                            <path d="M5.31153022,1.11880093 C5.31595575,1.12654561 5.32480681,1.14203497 5.32923235,1.14977966 C5.32480681,1.14203497 5.31595575,1.12654561 5.31153022,1.11880093 Z" id="Path"></path>
                                            <path d="M5.42448037,1.31305372 C5.4289059,1.3207984 5.43775696,1.33518138 5.44218249,1.34292606 C5.43775696,1.33518138 5.4289059,1.3207984 5.42448037,1.31305372 Z" id="Path"></path>
                                            <path d="M5.5361012,1.50592766 C5.54716503,1.52473617 5.56818631,1.5612468 5.57925014,1.58005531 C5.56818631,1.5612468 5.54716503,1.52473617 5.5361012,1.50592766 Z" id="Path"></path>
                                            <path d="M5.57485764,1.57236843 C5.58481508,1.59117694 5.60583636,1.62768758 5.61579381,1.64538971 C5.60583636,1.62768758 5.58481508,1.59117694 5.57485764,1.57236843 Z" id="Path"></path>
                                            <path d="M5.71048863,1.81215631 C5.725978,1.84683399 5.75695672,1.91420776 5.77244608,1.94789465 C5.75695672,1.91420776 5.725978,1.84683399 5.71048863,1.81215631 Z" id="Path"></path>
                                            <path d="M5.79492878,2.00481558 C5.80488622,2.02141132 5.82369474,2.05349643 5.83365218,2.06898579 L5.80931176,2.03690068 L5.79492878,2.00481558 Z" id="Path"></path>
                                            <path d="M5.8852889,2.14803438 C5.90852294,2.18073048 5.95388464,2.24612267 5.97711868,2.27881876 C5.95388464,2.24612267 5.90852294,2.18073048 5.8852889,2.14803438 Z" id="Path"></path>
                                            <path d="M5.9694318,2.27997469 C5.9827084,2.30210234 6.01147435,2.34635766 6.02475095,2.36848532 C6.01147435,2.34635766 5.9827084,2.30210234 5.9694318,2.27997469 Z" id="Path"></path>
                                            <path d="M6.08262965,2.46211505 C6.10475731,2.50670064 6.14901263,2.5968626 6.17114029,2.64144818 C6.14901263,2.5968626 6.10475731,2.50670064 6.08262965,2.46211505 Z" id="Path"></path>
                                            <path d="M6.1950844,2.69876543 C6.20061631,2.70872287 6.21168014,2.72753139 6.21721206,2.73638245 L6.20725461,2.72199947 L6.1950844,2.69876543 Z" id="Path"></path>
                                            <path d="M6.38684369,2.98885245 C6.39901391,3.00876735 6.42335433,3.04859713 6.43663093,3.06851203 C6.42335433,3.04859713 6.39901391,3.00876735 6.38684369,2.98885245 Z" id="Path"></path>
                                            <path d="M6.49139689,3.15984643 C6.50135434,3.17754855 6.52126923,3.21184643 6.53122668,3.22844217 C6.52126923,3.21184643 6.50135434,3.17754855 6.49139689,3.15984643 Z" id="Path"></path>
                                            <path d="M6.62713523,3.39652983 C6.63709267,3.41423195 6.65700757,3.44963621 6.66696501,3.46733834 C6.65700757,3.44963621 6.63709267,3.41423195 6.62713523,3.39652983 Z" id="Path"></path>
                                            <path d="M6.66280369,3.45999823 C6.67276114,3.47770036 6.69267603,3.51199823 6.70263348,3.52970036 C6.69267603,3.51199823 6.67276114,3.47770036 6.66280369,3.45999823 Z" id="Path"></path>
                                            <path d="M6.79859157,3.69375054 C6.8030171,3.70260161 6.81297455,3.71919735 6.81850646,3.72694203 C6.81297455,3.71919735 6.8030171,3.70260161 6.79859157,3.69375054 Z" id="Path"></path>
                                            <path d="M6.90624098,3.88136503 C6.91287928,3.89242886 6.92615588,3.9156629 6.93279418,3.92672673 C6.92615588,3.9156629 6.91287928,3.89242886 6.90624098,3.88136503 Z" id="Path"></path>
                                            <path d="M7.02007459,4.07965529 C7.0322448,4.09957018 7.05547884,4.14050635 7.06764906,4.16042125 C7.05547884,4.14050635 7.0322448,4.09957018 7.02007459,4.07965529 Z" id="Path"></path>
                                            <path d="M7.06302537,4.15250318 C7.07298281,4.17020531 7.09400409,4.20560956 7.10396154,4.22331169 C7.09400409,4.20560956 7.07298281,4.17020531 7.06302537,4.15250318 Z" id="Path"></path>
                                            <path d="M0.996735511,4.3347096 C3.48262954,5.02132761 5.92195641,5.86647213 8.40091491,6.57885069 L8.42271231,6.66009553 C5.63958104,6.72350614 2.85248662,6.67099423 0.0683645629,6.68585609 C0.295255648,6.31827272 0.846135315,6.24594499 0.938278856,5.78522729 C1.05816454,5.3116293 0.963048625,4.81722471 0.996735511,4.3347096 Z" id="Path"></path>
                                            <path d="M7.30862588,4.5872952 C7.31968971,4.61052924 7.34181737,4.65699732 7.35177482,4.68023137 C7.34181737,4.65699732 7.31968971,4.61052924 7.30862588,4.5872952 Z" id="Path"></path>
                                            <path d="M7.39238073,4.77373725 C7.40565733,4.79586491 7.43221052,4.84122661 7.44438073,4.86335427 C7.43221052,4.84122661 7.40565733,4.79586491 7.39238073,4.77373725 Z" id="Path"></path>
                                            <path d="M7.43825434,4.85422249 C7.45485009,4.87635014 7.48693519,4.9183927 7.50353094,4.93941397 C7.48693519,4.9183927 7.45485009,4.87635014 7.43825434,4.85422249 Z" id="Path"></path>
                                            <path d="M7.56565352,5.02761087 C7.57893012,5.04863215 7.60548331,5.0906747 7.61986629,5.11280236 C7.60548331,5.0906747 7.57893012,5.04863215 7.56565352,5.02761087 Z" id="Path"></path>
                                            <path d="M7.71502349,5.27804149 C7.72498093,5.29574362 7.74489583,5.33114787 7.75485327,5.34885 C7.74489583,5.33114787 7.72498093,5.29574362 7.71502349,5.27804149 Z" id="Path"></path>
                                            <path d="M7.75063416,5.3415099 C7.76059161,5.35921202 7.7805065,5.3935099 7.79157033,5.41121202 C7.7805065,5.3935099 7.76059161,5.35921202 7.75063416,5.3415099 Z" id="Path"></path>
                                            <path d="M7.88758621,5.57631079 C7.89201174,5.58516186 7.90086281,5.60065122 7.90528834,5.6083959 C7.90086281,5.60065122 7.89201174,5.58516186 7.88758621,5.57631079 Z" id="Path"></path>
                                            <path d="M7.99756399,5.76963059 C8.00198952,5.77737527 8.01084058,5.79175825 8.01526611,5.79950293 C8.01084058,5.79175825 8.00198952,5.77737527 7.99756399,5.76963059 Z" id="Path"></path>
                                            <path d="M8.10813624,5.96139814 C8.11920007,5.98020665 8.14132773,6.01782367 8.15239156,6.03773857 C8.14132773,6.01782367 8.11920007,5.98020665 8.10813624,5.96139814 Z" id="Path"></path>
                                            <path d="M8.14782566,6.0298205 C8.15888949,6.04862901 8.18101715,6.08624603 8.1909746,6.10505454 C8.18101715,6.08624603 8.15888949,6.04862901 8.14782566,6.0298205 Z" id="Path"></path>
                                            <path d="M8.28693269,6.26992213 C8.29135822,6.27766681 8.2991029,6.29315617 8.30352843,6.30090085 C8.2991029,6.29315617 8.29135822,6.27766681 8.28693269,6.26992213 Z" id="Path"></path>
                                            <path d="M8.40479551,6.49014189 C8.41917848,6.5155887 8.44683806,6.56648232 8.46122104,6.59192912 L8.40368912,6.58971636 L8.40479551,6.49014189 Z" id="Path"></path>
                                        </g>
                                        <g id="Group" transform="translate(8.818038, 28.633853)" fill="#296AD9">
                                            <path d="M5.85458264,5.2581266 C6.87608792,3.51631643 7.84706287,1.74181017 8.90225504,0.0208066061 C14.0177078,0.0396316307 19.1341513,-0.00792632613 24.2486132,0.0396316307 L24.3140054,0.0445855845 C21.7270507,0.127812009 19.1331605,0.0227881876 16.5462058,0.0881803782 C16.052792,0.406224214 15.7238495,0.921435413 15.2512423,1.26821218 C14.812322,1.5882376 14.4893242,2.03409344 14.0702197,2.37591626 C13.4826808,2.80889182 13.045742,3.40931103 12.449286,3.83336948 C11.7596956,4.56358227 10.9640906,5.17886334 10.2685555,5.90511297 C9.74739956,6.30539244 9.31145162,6.79979703 8.82596415,7.24069892 C8.29192793,7.62809811 7.88273134,8.15321722 7.38337279,8.58123883 C7.37049251,8.59213753 7.34572274,8.61393492 7.33284246,8.62582441 C7.30609111,8.64663102 7.2535792,8.69022581 7.22682785,8.71103242 C7.21394757,8.72193112 7.19016859,8.74174693 7.17728831,8.75264563 C6.78394438,9.0568184 6.48274399,9.45808866 6.09633559,9.77018775 C6.08345531,9.78108645 6.05868554,9.80189305 6.04679605,9.81180096 C6.03391577,9.82269966 6.009146,9.84350627 5.99626572,9.85341417 C5.43250577,10.3161135 4.98070518,10.9016708 4.3892031,11.3326648 C3.79373785,11.9231761 3.12198171,12.430461 2.55624018,13.0526776 C1.72001277,13.7402864 0.996735511,14.551744 0.134747544,15.2106198 C0.34875835,14.7439574 0.632124509,14.3159358 0.880812991,13.8690892 C2.53939673,10.9987683 4.1959989,8.12844745 5.85458264,5.2581266 Z" id="Path"></path>
                                            <path d="M0.0943893325,15.2834512 C0.106559545,15.2657491 0.130899971,15.2303448 0.143070184,15.2126427 L0.139751035,15.2845576 L0.0943893325,15.2834512 Z" id="Path"></path>
                                        </g>
                                        <path d="M33.1320432,28.6784387 C36.1797156,28.691319 39.227388,28.6824019 42.2760512,28.6814111 C45.0601733,28.6665492 47.8472677,28.7190612 50.630399,28.6556506 L50.6888556,28.6516874 L50.7284872,28.6625861 L50.7284872,28.6705124 C47.7898018,33.7502967 44.8600335,38.8360257 41.9213481,43.9168007 C30.9305062,43.9138284 19.9396642,43.9267086 8.94981299,43.9088744 L8.95278537,43.844473 C9.81477333,43.1855971 10.5380506,42.3741395 11.374278,41.6865307 C11.9400195,41.0643141 12.6117757,40.5570292 13.2072409,39.9665179 C13.798743,39.535524 14.2505436,38.9499666 14.8143035,38.4872673 C14.8271838,38.4773594 14.8519536,38.4565528 14.8648339,38.4456541 C14.8767234,38.4357462 14.9014931,38.4149396 14.9143734,38.4040409 C15.3007818,38.0919418 15.6019822,37.6906716 15.9953261,37.3864988 C16.0082064,37.3756001 16.0319854,37.3557843 16.0448657,37.3448856 C16.071617,37.324079 16.1241289,37.2804842 16.1508803,37.2596776 C16.1637606,37.2477881 16.1885303,37.2259907 16.2014106,37.215092 C16.7007692,36.7870704 17.1099657,36.2619513 17.644002,35.8745521 C18.1294894,35.4336502 18.5654374,34.9392456 19.0865933,34.5389661 C19.7821284,33.8127165 20.5777334,33.1974354 21.2673238,32.4672226 C21.8637798,32.0431642 22.3007186,31.442745 22.8882575,31.0097694 C23.307362,30.6679466 23.6303598,30.2220908 24.0692801,29.9020653 C24.5418873,29.5552886 24.8708298,29.0400774 25.3642436,28.7220335 C27.9511983,28.6566413 30.5450885,28.7616652 33.1320432,28.6784387 Z" id="Path" fill="#2A71E9"></path>
                                        <g id="Group" transform="translate(14.762782, 37.154654)" fill="#286EE6">
                                            <path d="M1.39092987,0.113404257 C1.40531285,0.100127661 1.43297243,0.0757872354 1.44735541,0.0636170226 C1.43297243,0.0757872354 1.40531285,0.100127661 1.39092987,0.113404257 Z" id="Path"></path>
                                            <path d="M1.28208325,0.200981903 C1.31000133,0.17774786 1.36480347,0.129067009 1.39272155,0.105832967 C1.36480347,0.129067009 1.31000133,0.17774786 1.28208325,0.200981903 Z" id="Path"></path>
                                            <path d="M1.23543352,0.240052086 C1.2498165,0.227881874 1.27636969,0.205754214 1.29075267,0.193584001 C1.27636969,0.205754214 1.2498165,0.227881874 1.23543352,0.240052086 Z" id="Path"></path>
                                            <path d="M0.104941254,1.29920742 C0.11821785,1.28814359 0.145877424,1.26490954 0.160260403,1.25273933 C0.145877424,1.26490954 0.11821785,1.28814359 0.104941254,1.29920742 Z" id="Path"></path>
                                            <path d="M0.0543531291,1.34082063 C0.0687361078,1.3297568 0.0963956823,1.30652276 0.110778661,1.29435254 C0.0963956823,1.30652276 0.0687361078,1.3297568 0.0543531291,1.34082063 Z" id="Path"></path>
                                        </g>
                                    </g>
                                </g>
                            </g>
                        </g>
                    </g>
                </g>
            </g>
        </g>
    </g>
</svg>