<?xml version="1.0" encoding="UTF-8"?>
<svg width="12px" height="16px" viewBox="0 0 12 16" version="1.1" xmlns="http://www.w3.org/2000/svg" xmlns:xlink="http://www.w3.org/1999/xlink">
    <!-- Generator: sketchtool 63.1 (101010) - https://sketch.com -->
    <title>0B627F11-5FBE-444D-8769-2213B159C598</title>
    <desc>Created with sketchtool.</desc>
    <g id="Design" stroke="none" stroke-width="1" fill="none" fill-rule="evenodd">
        <g id="00sso_provider_bills" transform="translate(-1555.000000, -303.000000)" fill="#A7B1C6">
            <g id="Group-2" transform="translate(94.000000, 146.000000)">
                <g id="Ic_report11-Copy" transform="translate(1459.000000, 157.000000)">
                    <path d="M8.71875,0.812837377 C8.90831122,0.804716681 9.10307975,0.869539349 9.25901806,1.02662904 L13.5399097,5.33912904 C13.6616336,5.46175167 13.7269648,5.60762055 13.7448691,5.75520241 L13.75,5.84408738 L13.75,13.7503374 C13.75,14.5442467 13.1064093,15.1878374 12.3125,15.1878374 L3.6875,15.1878374 C2.89359067,15.1878374 2.25,14.5442467 2.25,13.7503374 L2.25,2.25033738 C2.25,1.45642805 2.89359067,0.812837377 3.6875,0.812837377 L8.71875,0.812837377 Z M8.0247037,2.25008855 L3.6875,2.25033738 L3.6875,13.7503374 L12.3125,13.7503374 L12.3120741,6.56386633 L8.7173108,6.56423922 C8.3182973,6.56423922 7.99565563,6.23922409 7.99856038,5.84022131 L8.0247037,2.25008855 Z M9.45240741,3.57982929 L9.44134816,5.12673922 L10.9985185,5.1259404 L9.45240741,3.57982929 Z" id="Shape"></path>
                </g>
            </g>
        </g>
    </g>
</svg>