<?xml version="1.0" encoding="UTF-8"?>
<svg width="16px" height="15px" viewBox="0 0 16 15" version="1.1" xmlns="http://www.w3.org/2000/svg" xmlns:xlink="http://www.w3.org/1999/xlink">
    <!-- Generator: sketchtool 63.1 (101010) - https://sketch.com -->
    <title>6D890D6B-A241-45CA-A1D2-6EB5A3933E19</title>
    <desc>Created with sketchtool.</desc>
    <g id="Page-1" stroke="none" stroke-width="1" fill="none" fill-rule="evenodd">
        <g id="Assets" transform="translate(-64.000000, -232.000000)" fill="#C3C3C3" fill-rule="nonzero">
            <g id="Unprocess" transform="translate(64.000000, 232.000000)">
                <path d="M10.5752054,4.50831988 C11.1057625,4.50831988 11.584295,4.780736 11.8552439,5.23686448 L11.8552439,5.23686448 L15.4451492,11.8457907 C15.7158206,12.3010666 15.7210349,12.8604317 15.4532979,13.3313904 C15.184966,13.8026465 14.6816505,14.0837665 14.1394551,14.0837665 L14.1394551,14.0837665 L6.99112913,14.0837665 C6.44893381,14.0837665 5.9654844,13.8026465 5.69713271,13.3313904 C5.42939564,12.8604119 5.43462984,12.3010865 5.71138797,11.8353421 L5.71138797,11.8353421 L9.28935765,5.24733288 C9.29139978,5.24384341 9.29312469,5.24035395 9.29516682,5.23686448 C9.56611578,4.780736 10.0446482,4.50831988 10.5752054,4.50831988 Z M10.5752054,11.1067975 C10.0827151,11.1067975 9.68210081,11.5074118 9.68210081,11.9998823 C9.68210081,12.4923725 10.0827349,12.8929868 10.5752054,12.8929868 C11.0676957,12.8929868 11.4683099,12.4923527 11.4682901,11.9998823 C11.4682901,11.5074118 11.0676758,11.1067975 10.5752054,11.1067975 Z M3,8.01313806 C3.55228475,8.01313806 4,8.46085331 4,9.01313806 L4,10.0131381 C4,10.5654228 3.55228475,11.0131381 3,11.0131381 L1,11.0131381 C0.44771525,11.0131381 0,10.5654228 0,10.0131381 L0,9.01313806 C0,8.46085331 0.44771525,8.01313806 1,8.01313806 L3,8.01313806 Z M10.5752054,6.93902908 C10.2463829,6.93902908 9.97981555,7.20557656 9.97981555,7.5344189 L9.97981555,7.5344189 L9.97981555,9.91599804 C9.97981555,10.2447809 10.2463829,10.5113879 10.5752054,10.5113879 C10.9040279,10.5113879 11.1705952,10.2448007 11.1705952,9.91599804 L11.1705952,9.91599804 L11.1705952,7.5344189 C11.1705952,7.20559638 10.9040477,6.93902908 10.5752054,6.93902908 Z M5,4.00656903 C5.55228475,4.00656903 6,4.45428428 6,5.00656903 L6,6.00656903 C6,6.55885378 5.55228475,7.00656903 5,7.00656903 L1,7.00656903 C0.44771525,7.00656903 0,6.55885378 0,6.00656903 L0,5.00656903 C0,4.45428428 0.44771525,4.00656903 1,4.00656903 L5,4.00656903 Z M13,2.04636308e-12 C13.5522847,2.04636308e-12 14,0.44771525 14,1 L14,2 C14,2.55228475 13.5522847,3 13,3 L1,3 C0.44771525,3 0,2.55228475 0,2 L0,1 C0,0.44771525 0.44771525,2.04636308e-12 1,2.04636308e-12 L13,2.04636308e-12 Z" id="Combined-Shape"></path>
            </g>
        </g>
    </g>
</svg>