<?xml version="1.0" encoding="UTF-8"?>
<svg width="18px" height="18px" viewBox="0 0 18 18" version="1.1" xmlns="http://www.w3.org/2000/svg" xmlns:xlink="http://www.w3.org/1999/xlink">
    <!-- Generator: sketchtool 63.1 (101010) - https://sketch.com -->
    <title>71C64DF0-AE34-4979-84B1-81AED74B4A6F</title>
    <desc>Created with sketchtool.</desc>
    <g id="Page-1" stroke="none" stroke-width="1" fill="none" fill-rule="evenodd">
        <g id="Assets" transform="translate(-90.000000, -54.000000)">
            <g id="update_error" transform="translate(90.000000, 54.000000)">
                <g id="interface" transform="translate(2.000000, 2.000000)" fill="#C3C3C3" fill-rule="nonzero">
                    <path d="M14.5580763,6.73224097 L14.6357422,6.74157716 L15.6015625,6.9383545 C15.8052978,6.97998047 15.9572754,7.1501465 15.9750977,7.35729981 C15.9924316,7.56005859 16,7.76403809 16,7.97180175 L16,7.97180175 L16,8 C16,12.3968506 12.3968506,16 8,16 C5.90942381,16 3.96557619,15.1624756 2.55004881,13.8405762 L2.55004881,13.8405762 L2.09997559,14.2905273 C1.99963378,14.4020996 1.83630372,14.4614258 1.640625,14.4123535 C1.47192381,14.3656006 1.34997559,14.2249756 1.31262206,14.0561523 L1.31411299,14.0635688 L1.313,14.06 L1.31005277,14.0433891 C1.25649903,13.7771985 0.710811345,11.0645023 0.651642016,10.7706125 L0.646850594,10.7468262 C0.618774406,10.5968018 0.665649406,10.4281006 0.77819825,10.3249512 C0.881225594,10.2125244 1.04064941,10.1656494 1.20007325,10.1937256 C1.00268556,10.1540528 4.10253906,11.152832 4.19689941,11.171875 C4.36560059,11.2093506 4.49682619,11.3311768 4.55310059,11.4906006 C4.59997559,11.6594238 4.55310059,11.8375244 4.43127441,11.9593506 L4.43127441,11.9593506 L3.890625,12.5 C4.96875,13.4937744 6.43444825,14.125 8,14.125 C11.3563233,14.125 14.125,11.3562012 14.125,8 C14.125,7.79724122 14.1101074,7.53125 14.0766602,7.25769044 C14.0380859,6.94067381 14.3218994,6.67761231 14.6357422,6.74157716 Z M8,1.37667655e-12 C10.0811768,1.37667655e-12 12.0250244,0.806274406 13.4406738,2.12805175 L13.4406738,2.12805175 L13.9000244,1.67810059 C14.0218506,1.55627441 14.2000733,1.50939941 14.359375,1.55627441 C14.5280762,1.60314941 14.6500244,1.74377441 14.6875,1.91247559 L14.687,1.911 C14.6492965,1.7225161 15.2842668,4.90861287 15.3483585,5.22924899 L15.3531494,5.25317381 C15.4223633,5.62207031 15.0510254,5.88989256 14.7999268,5.80627441 C14.9973144,5.84594725 11.8974609,4.84704591 11.8031006,4.828125 C11.6343994,4.79064941 11.5031738,4.66870119 11.4468994,4.50939941 C11.4000244,4.34057619 11.4468994,4.16247559 11.5687256,4.04064941 L11.5687256,4.04064941 L12.109375,3.49060059 C11.03125,2.50622559 9.56555175,1.875 8,1.875 C4.64367675,1.875 1.875,4.64367675 1.875,8 C1.875,8.2248535 1.89086913,8.48046875 1.92175294,8.73779297 C1.95959472,9.05334472 1.67773438,9.31616213 1.36425781,9.25341797 L1.36425781,9.25341797 L0.401245125,9.06091309 C0.197387688,9.02001953 0.0447998125,8.85046388 0.0261230625,8.64343263 C0.0120849688,8.48718263 4.17443857e-14,8.282959 4.17443857e-14,8.01867675 L4.17443857e-14,8.01867675 L4.17443857e-14,8 C4.17443857e-14,3.60314941 3.60314941,1.37667655e-12 8,1.37667655e-12 Z" id="Combined-Shape"></path>
                </g>
                <g id="Ic/error" transform="translate(-0.001218, 0.287666)">
                    <rect id="Rectangle" fill="#FFFFFF" x="3.01327462" y="1.37738059" width="1.98446352" height="5.95339056"></rect>
                    <path d="M8.04108736,5.94098411 L5.13849286,0.597379873 C4.91941884,0.228580159 4.53250457,0.00831987533 4.10352602,0.00831987533 C3.67454748,0.00831987533 3.2876332,0.228580159 3.06855918,0.597379873 C3.06690803,0.600201256 3.06551337,0.60302264 3.06386222,0.605844023 L0.170918132,5.93253599 C-0.0528528496,6.30911054 -0.0570849249,6.76134947 0.159392139,7.1421561 C0.376366152,7.52318715 0.767256017,7.75048486 1.20564452,7.75048486 L6.98537694,7.75048486 C7.42376544,7.75048486 7.83071795,7.52318715 8.04767594,7.1421561 C8.264153,6.7613655 8.25993696,6.30909451 8.04108736,5.94098411 Z M3.62212746,2.45505254 C3.62212746,2.1891692 3.83765872,1.97365397 4.10352602,1.97365397 C4.36940936,1.97365397 4.58492459,2.18918523 4.58492459,2.45505254 L4.58492459,4.38066283 C4.58492459,4.64651411 4.36939333,4.8620614 4.10352602,4.8620614 C3.83765872,4.8620614 3.62212746,4.64649808 3.62212746,4.38066283 L3.62212746,2.45505254 L3.62212746,2.45505254 Z M4.10352602,6.78768773 C3.70534224,6.78768773 3.38141214,6.46377366 3.38141214,6.06557385 C3.38141214,5.66739006 3.70532621,5.343476 4.10352602,5.343476 C4.50170981,5.343476 4.82562387,5.66739006 4.82562387,6.06557385 C4.8256399,6.46375763 4.50172584,6.78768773 4.10352602,6.78768773 Z" id="Shape" fill="#FF3366" fill-rule="nonzero"></path>
                </g>
            </g>
        </g>
    </g>
</svg>